<?xml version="1.0" encoding="utf-8"?>
<!-- Generator: Adobe Illustrator 18.1.0, SVG Export Plug-In . SVG Version: 6.00 Build 0)  -->
<svg version="1.1" id="Layer_1" xmlns="http://www.w3.org/2000/svg" xmlns:xlink="http://www.w3.org/1999/xlink" x="0px" y="0px"
	 width="290.2px" height="152.5px" viewBox="0 0 290.2 152.5" enable-background="new 0 0 290.2 152.5" xml:space="preserve">
<g>
	<g>
		<g>
			<g>
				<path fill-rule="evenodd" clip-rule="evenodd" fill="#4E8181" d="M147.5,122.5c-2.5,0.3-4.7,0.1-6.6-0.7
					c-2.8-1.2-4.7-3.5-5.5-6.8c-0.7-3.1-0.6-6.2,0.6-9.3c-0.9,0.1-1.6,0.3-2.2,0.4c-1.1,0.3-2.1,0.2-3.1-0.2c-2.4-1-4.1-2.8-5.1-5.5
					c-1.6-3.5-1.5-7.4,0.4-11.8c0.4-1,1-2.1,1.8-3.2c0.7-0.9,1.1-1.5,1.3-1.6c-1.7-0.2-2.8-0.5-3.2-0.7c-1.9-0.8-3.2-2.1-3.9-3.8
					c-1.1-2.2-1-4.8,0.4-7.9c1-2.2,2.2-4,3.8-5.2c0.8-0.8,1.8-1.5,2.9-2.2c-1.5,0-2.9-0.8-4.1-2.3c-1.4-1.8-1.6-3.8-0.6-6.2
					c1.4-3.3,4-5.7,7.7-7.2c1.5-0.5,2.9-0.9,4.3-1.2c1-0.9,2.2-1.8,3.5-2.7c3.4-2,6.9-2.6,10.4-1.7c2.5,0.6,4,2,4.5,4.2
					c0.5,1.9,0.3,3.4-0.6,4.6c1.3-0.5,2.4-0.8,3.5-1c1.9-0.5,4.1-0.4,6.4,0.1c3.3,0.8,5.4,2.3,6.5,4.5c0.9,1.6,1.2,3.4,0.7,5.5
					c-0.1,0.4-0.5,1.4-1.4,2.9c0.2,0,0.9,0,2,0c1.4,0,2.6,0.2,3.7,0.5c4.6,1.1,7.8,3.4,9.6,6.8c1.5,2.4,2,4.9,1.3,7.4
					c-0.3,1-0.8,1.9-1.7,2.6c-0.4,0.3-1,0.8-1.6,1.5c3.2,1,5.7,2.7,7.7,5.2c2.1,2.7,2.8,5.5,2.1,8.5c-0.6,2-1.7,3.9-3.4,5.7
					c-1.3,1.6-2.5,2.6-3.7,3c2,0.8,3.4,2.1,4.3,3.9c0.8,1.8,0.9,3.8,0.3,6.1c-0.6,2.4-1.5,4.2-2.6,5.3c-0.3,0.2-1.8,1.1-4.3,2.5
					l-0.3,0c1.7,0.4,1.8,3.1,0.3,7.9c-0.9,2.7-0.6,7.1,1,13.2l0.9,1.9c-0.2,0.4-0.3,0.6-0.2,0.7l-1.2-2.4c-4-4.9-7.3-7.9-9.9-8.8
					c-4.8-1.7-6.8-3.4-6.1-5l-0.2,0.2c-2.7,1.1-4.2,1.8-4.6,1.9c-1.6,0.2-3.6-0.1-5.8-1.1c-2.2-0.9-3.8-2.2-4.7-3.9
					c-0.9-1.8-1-3.7-0.5-5.7C151.1,122,149.5,122.4,147.5,122.5z"/>
			</g>
		</g>
		<g>
			<path fill-rule="evenodd" clip-rule="evenodd" fill="#A0C6C5" d="M157.7,126.4c4.2-6,7.8-12.8,10.7-20.3
				c-1.6-3.6-3.2-7.1-4.9-10.7c-5.5,8.2-11.4,16-17.9,23.6c-0.1,0.1-0.2,0.1-0.4,0c5.8-7.9,11.8-15.9,18.1-23.9
				c-2.2-4.5-4.4-9-6.8-13.4c-7.6,6.9-15.3,13.2-23.2,19.1c-0.2,0.2-0.5,0.2-0.8,0.1c7.4-6.6,15.4-13.1,23.9-19.5
				c-2.8-5.3-5.8-10.6-8.9-15.8l-0.1,0c0,0,0,0,0.1-0.1c-0.1-0.2-0.2-0.4-0.4-0.6c-6,5.3-12.9,9.2-20.6,11.8c-0.2,0.1-0.3,0.1-0.5,0
				c7.1-3.4,14.2-7.4,21.1-11.9c-0.4-0.7-0.9-1.5-1.3-2.2c-3.2-5.2-6.4-10.1-9.8-14.7c4.3,5.5,8.4,11.2,12.3,17
				c4.7-3.8,10.5-6.1,17.4-6.8c0.2,0,0.4,0,0.5,0.1c-6.1,1.4-12,3.7-17.8,6.8c3.4,5.1,6.6,10.4,9.7,15.8c0.4-1,2.3-2.2,5.5-3.5
				c6.8-2.7,13.2-3.9,19.1-3.6c-8.5,0.5-16.6,3-24.2,7.5c0,0-0.1,0.1-0.1,0.1c2.5,4.4,4.9,8.9,7.2,13.5c1-0.4,2.8-0.6,5.6-0.6
				c6.2-0.1,11.9,0.1,17,0.5c-7.3,0.3-14.5,0.8-21.7,1.4c-0.1,0-0.1,0-0.2,0c1.7,3.6,3.4,7.1,5,10.8c5.6,2.8,11.5,5.4,17.5,7.8
				c-6.3-1.2-12-3.4-17.1-6.8c2.4,5.5,4.6,11,6.6,16.7c1.7,4.8,2.4,8.9,2.2,12.5c-3.4-10.1-7.2-20-11.5-29.8
				c-2.9,7.1-6.5,13.4-11,19C157.9,126.5,157.8,126.5,157.7,126.4z"/>
		</g>
	</g>
	<g>
		<g>
			<path fill-rule="evenodd" clip-rule="evenodd" fill="#C1E6E7" d="M63,77.4c4.4-0.1,6,0.8,5,2.7c0.2,0.1,0.4,0.1,0.6,0.2
				c2,0.9,2.4,2.3,1.3,4.1c-0.6,1-1.1,2.2-1.4,3.6c-0.4,1.8,0,3.5,1.1,5.3c4.7,7,3.1,12.1-4.9,15.3c-1,0.4-2.1,1-3.3,1.8
				c-1.5,1-2.8,0.8-3.8-0.7c0.7-3,1.6-6.2,2.7-9.4c0.2-0.5,0.1-1-0.2-1.5c-2.9-4.8-3.6-9-1.8-12.5c-3.6,0.6-6.8-0.6-9.4-3.6
				c-2.6-2.8-5.7-3.9-9.6-3.2c-0.4,0.1-0.7-0.1-1-0.5c0.6-3.9,3.3-6.8,7.9-8.9c7.1-3.1,12.4-0.8,15.9,6.9
				C62.2,77.3,62.5,77.4,63,77.4z M77.9,82.4c-0.8-4-0.4-7.3,1.1-9.8c-0.5-0.1-1-0.3-1.6-0.5c-2.1-0.8-4.1-1.9-6-3.3
				c-2.6-1.9-5.4-3.4-8.2-4.4c1.2-3.4,4-5.8,8.5-7.2c4.9-1.5,8.5,0.4,11,5.6c0.4,0.8,1.1,1.1,2.1,1c5-0.4,6.5,1.2,4.5,4.7
				c-0.3,0.6-0.8,1.1-1.3,1.5c-0.3,1.7-0.8,3.4-1.4,5.1c2.2,1.4,4.3,3,6.4,4.7c0.3,0.2,0.5,0.5,0.7,0.7c3.8,1.9,3.8,4.8-0.2,8.7
				c-2.7,2.6-5.4,3.4-8.1,2.4c-0.9-0.4-1.2-1-0.8-2.1c0.1-0.3,0.1-0.6,0.2-0.9c-1.8-2.2-3.9-4.2-6.3-5.9
				C78.2,82.7,78.1,82.5,77.9,82.4z M89,51.7c1.2-3.9,4.2-6.8,8.9-8.6c1.7-0.7,3.4-0.6,4.9,0.2c3.3,1.7,6.5,3.7,9.6,6.1
				c1,0.8,2.1,1.2,3.4,1.3c0.6,0.1,1.1,0.1,1.5,0.2c0.2-0.1,0.4-0.2,0.6-0.4c1-0.6,1.6-0.3,1.8,0.9c0.4,2.7-0.6,4.9-3.1,6.7
				c-1,0.7-1,1.5,0,2.4c5.8,5.1,5.5,9.3-0.8,12.6c-2.6,1.3-5,1.7-7.3,1c-1-0.3-1.3-1-0.9-2c0.4-1.3,0.2-2.5-0.6-3.6
				c-2.4,0-3.9-1.3-4.8-3.9c-0.1-2.9,0.5-5.2,2-7c-0.7-0.1-1.4-0.2-2.2-0.3c-2.7-0.4-5-1.7-7-3.8c-1.1-1.2-2.6-1.5-4.4-1.2
				C89.9,52.6,89.3,52.3,89,51.7z M133.9,57.3c-0.7-0.1-0.8-0.5-0.5-1.3c0.5-1.2,1.1-2.3,1.8-3.3c-5-1.2-6.2-3.9-3.6-8.3
				c-3.9-0.7-6.5-3.2-7.7-7.4c-2.2,1.3-4,1.1-5.6-0.5l0,0c1-3.7,3.9-6,8.6-7c1.9-0.4,3.8-0.4,5.6-0.1c1.6,0.2,2.3,1.2,2,2.9
				c-0.5,3.3,1.2,4.6,5.3,3.8c5.2-1,6.7,0.9,4.5,5.8c-1.3,2.8-0.5,5.3,2.2,7.6c1.5,1.2,1.5,2.5,0.1,3.7
				C142.5,56.6,138.3,58,133.9,57.3z"/>
		</g>
		<g>
			<path fill-rule="evenodd" clip-rule="evenodd" fill="#69C9CA" d="M36.4,79.5c-0.8,0.3-1.1,0-0.8-1c0.1-0.4,0.5-0.8,1.4-1.2
				c1-0.5,1.6-0.9,1.9-1.2l0.1,0.1c0,0,0.1-0.1,0.1-0.1c0.6-0.5,1.2-1,1.8-1.3c0.3-0.2,0.8-0.4,1.4-0.7l0,0c0.8-0.5,2.1-1.2,3.8-2.2
				c1.6-0.9,2.9-1.6,3.9-1.9c3.1-1.1,5.5-0.5,7.2,1.9c1.8,2.4,3.3,4.1,4.7,5c1.9,1.3,4,1.6,6,0.7c0.2-0.1,0.3-0.1,0.5,0
				c0.2,0.1,0.3,0.2,0.3,0.3c0.1,0.2,0.1,0.3,0,0.5c-0.1,0.2-0.2,0.3-0.3,0.3c-2.5,1-4.9,0.7-7.2-0.9c-1.5-1-3.1-2.8-5-5.4
				c-1.4-1.9-3.3-2.4-5.7-1.5c-0.9,0.3-2.2,0.9-3.6,1.8c-1.7,1-3,1.8-3.9,2.3l0,0c-0.6,0.3-1,0.5-1.4,0.7l0,0
				c-0.4,0.2-0.8,0.5-1.2,0.8c0,0.1,0,0.2,0,0.2c0.7-0.1,1.7-0.2,2.9-0.2l0,0c0.4-0.4,0.9-0.6,1.6-0.7c0.4-0.1,1.1-0.2,1.9-0.2
				c2.3-0.3,4.5,0.1,6.4,1.3c1.3,0.8,2.7,2.2,4.2,4.1c0.4,0.4,1.2,0.8,2.5,1l0,0c1.4,0.2,2.3,0.4,2.7,0.6l0-0.2
				c0.2-0.1,0.5-0.1,1-0.2c0.3-0.1,0.6,0,0.8,0.1c0.6-0.3,1.2-0.7,2.1-1.3c0.9-0.7,1.7-1.2,2.3-1.5c0.1-0.2,0.4-0.4,0.9-0.7
				c0.7-0.3,1.1-0.5,1.2-0.6l0.1,0.3c0.6-0.9,1.6-1.7,2.9-2.6l0,0c0.5-0.3,1.7-1,3.5-2l0-0.1c0-0.2,0.2-0.5,0.6-0.7
				c0.4-0.2,0.6-0.4,0.7-0.6c-2.5,0.3-5.1-1-7.7-3.7l0,0c-1.7-1.8-2.7-2.9-3.1-3.2c-1.2-1-2.3-1.6-3.5-1.8l0,0l0,0.2
				c-0.3-0.1-1.1,0-2.1,0.5c-0.9,0.4-1.5,0.4-1.7-0.1c-0.3-0.6,0.1-1.2,1.1-1.8c0.6-0.3,1.4-0.8,2.6-1.3l0,0.1c0,0,0,0,0.1,0
				c0.1,0,0.6-0.2,1.4-0.6c0.5-0.2,1-0.4,1.4-0.4l0,0c0.2-0.2,0.3-0.3,0.4-0.4c0.1,0,0.3,0,0.5,0l0,0c0.5-0.3,1.1-0.5,1.7-0.7l0,0
				c0.7-0.2,1.1-0.3,1.1-0.3l0.1,0c1.1-0.4,2.3-0.9,3.6-1.4l0,0l0,0c1.1-0.3,2.3-0.3,3.6,0.3l0,0c1.4,0.5,2.4,1.6,3,3.3
				c0.5,1.4,1.2,2.4,2.1,2.9c0.7,0.4,1.7,0.7,2.9,0.7l0,0c1.1,0.1,2.1,0,2.9-0.4l-0.1-0.1c0.7-0.4,1.3-0.5,1.8-0.4
				c0.5,0.1,0.9,0.4,0.9,1c1.1-0.5,3-1.5,5.7-3.1c2.2-1.3,4.1-2.1,5.6-2.6c0-0.1,0.1-0.2,0.2-0.3c0.2-0.2,0.8-0.5,1.7-0.9
				c0.3-0.1,0.6-0.3,0.8-0.5l0-0.1c-1.7,0.2-2.9,0.3-3.8,0.3c-1.5-0.1-2.8-0.5-3.9-1.2l0,0c-0.7-0.5-1.6-1.3-2.5-2.6
				c-0.7-1-1.4-1.7-2.1-2.1l0,0c-0.3-0.2-0.8-0.4-1.4-0.6l0,0c-0.8-0.2-1.4-0.4-1.9-0.7l0,0.1c-0.1,0-0.3,0.1-0.7,0.2
				c-0.3,0.1-0.6,0.1-0.7-0.1c-0.9,0.3-1.5,0.7-2,0.9C86.2,52,86.1,52,85.9,52c-0.2,0-0.4-0.1-0.5-0.3c-0.1-0.2-0.1-0.3-0.1-0.5
				c0-0.2,0.1-0.4,0.3-0.5c0.5-0.4,1.3-0.7,2.4-1.2l0,0c0.7-0.4,1.7-0.8,3-1.4c1.3-0.5,2.3-1,3-1.4l0.1,0.2c2.9-1.9,4.6-2.9,5.1-3.2
				c2.2-0.9,4.2-0.8,5.8,0.4l0,0c0.3-0.1,0.6,0,0.8,0.2c0.2,0.1,0.4,0.4,0.6,0.8l-0.1,0.1c1.6,2.1,2.6,3.2,2.8,3.4
				c0.8,0.7,2.1,1.2,3.7,1.4l0,0c2,0.3,3.5,0.4,4.5,0.5l0-0.1c0.7,0.1,1.4,0,2.3-0.3c1.2-0.4,1.9-0.6,2-0.6c0.9-0.4,2.2-1.1,3.9-2.2
				c1.8-1.1,3.2-1.8,4.2-2.2l-0.1-0.2c0.2,0,0.5-0.2,0.8-0.4c0.2-0.2,0.4-0.3,0.6-0.2l0,0.1c0.5-0.3,1.1-0.9,1.7-1.6l0-0.1l0,0
				c-0.3,0-0.7,0-1.1,0.1l0,0c-0.8,0.1-1.3,0.2-1.6,0.2c-1.4-0.1-2.4-0.5-3.1-1.1l0,0c-0.5-0.5-1.1-1.4-1.9-2.9
				c-0.5-1-1.4-1.7-2.6-2l0,0c-0.8-0.2-2-0.5-3.8-0.8l0,0.2c-0.4-0.2-1.4,0.1-3,0.7c-1.6,0.7-2.5,0.9-2.8,0.8
				c-0.7-0.4-0.6-1,0.5-1.7c0.1-0.1,0.9-0.5,2.4-1.2c3.6-1.8,6-2.9,7.1-3.3l0,0c3.1-1.4,5-2.2,5.7-2.4c2.7-0.8,4.6-0.5,5.8,0.9l0,0
				c0.5,0.6,0.8,1.3,0.7,2c-0.1,0.7-0.1,1.3,0,1.6c0.3,0.9,1.1,1.6,2.4,1.9c1.8,0.3,3.2,0.5,4.1,0.7l0,0c0.9,0,1.6,0,1.9-0.1
				c0.7-0.1,1.4-0.5,2-1l0.1,0.1c1-0.7,2.8-1.7,5.4-3c2.3-1.1,4-2.2,5-3.3c0.1-0.1,0.2-0.1,0.4-0.1c0.1,0,0.3,0.1,0.3,0.2
				c0.1,0.1,0.1,0.2,0.1,0.4c0,0.1-0.1,0.3-0.1,0.3c-1.1,1.1-2.9,2.3-5.3,3.5c-2.5,1.2-4.2,2.2-5.2,2.9l0.1,0
				c0.1,0.7-0.2,1.3-0.9,1.7c-0.9,0.5-1.4,0.9-1.5,1.2c0,0,0,0,0,0c0,0-0.1,0.1-0.1,0.1c-1.5,1.6-1.8,3.4-0.8,5.3
				c0.6,1.1,1.9,2.6,4,4.6c0.4,0.3,0.7,0.5,0.8,0.7l0,0l0,0c0.4,0.4,0.6,0.9,0.5,1.3c0,0.5-0.9,1.3-2.7,2.3l0,0
				c-1.7,0.8-2.7,1.4-3.1,1.6l0.1,0.2l-0.8,0.4l-0.1-0.1c-1.9,1.1-3.1,1.8-3.7,2.1c-1.4,0.8-2.6,1.3-3.8,1.7l0.1,0.2
				c-0.7,0.5-1.2,0.8-1.5,0.9c-0.6,0.3-1,0.2-1.2-0.1c-0.2-0.3,0-0.7,0.5-1.3c0.3-0.3,0.7-0.8,1.2-1.3c0-0.1,0-0.1,0.1-0.2
				c1.4-2.2,1.8-3.8,1.3-4.7l0,0c-0.2-0.3-0.6-0.6-1.3-0.9c-0.5-0.2-1.2-0.6-2.1-1.1l0,0l0,0c-1-0.6-1.6-1.2-1.8-1.9
				c-0.3-0.8-0.1-1.6,0.4-2.4l-0.1-0.2c-1,0.4-2.2,1.1-3.7,2c-1.9,1.2-3.3,1.9-4.3,2.3l0.1,0.1c0,0.3-0.3,0.7-0.8,1.2
				c-0.6,0.5-1,0.9-1.1,1l-0.1-0.1c0,0,0,0.1-0.1,0.1c-2,2.4-3.2,4.2-3.7,5.5l0,0c-0.5,1.7,0,3.2,1.6,4.4c0.1,0.1,0.6,0.4,1.5,0.9
				l0,0c0.6,0.3,1.1,0.6,1.5,0.9c0.6,0.1,1.1,0.3,1.3,0.8c0.3,0.5,0.1,1-0.6,1.4l-0.1-0.1c0,0.1-0.1,0.1-0.1,0.1
				c-1.9,2-3.8,3.4-5.7,4.2l0.1,0.1c-0.1,0.1-0.4,0.3-0.9,0.6c-0.3,0.2-0.6,0.3-0.9,0.3l0-0.1c-0.4,0.2-1,0.6-2,1.3
				c-0.9,0.6-1.6,1-2.2,1.2l0.1,0.2c-2.1,1.8-3.2,2-3.4,0.6c0-0.3,0.2-0.6,0.7-0.9c0.6-0.4,1-0.7,1.1-0.9l0.2,0c0-0.1,0-0.1,0.1-0.2
				c0.6-1.1,0.7-2.3,0.3-3.3l0,0c-0.5-1-1.3-1.8-2.5-2.4l0,0c-0.6-0.3-1.4-0.6-2.6-1l0,0l0,0c-1.2-0.5-1.9-1.3-2.1-2.4l0,0
				c-0.2-0.7,0.1-1.5,0.7-2.3c0.3-0.4,0.5-0.8,0.7-1.1c-1.4,0.5-3,1.3-5,2.4c-3,1.7-5,2.8-6,3.2c-0.1,0.6-0.5,1.1-1.2,1.8
				c-1,0.9-1.6,1.5-1.8,1.7l-0.1,0c0,0,0,0,0,0.1c-1.7,2.5-2,4.5-0.6,6.3c0.7,0.9,2.7,2.3,5.9,4.1l0,0c0.7,0.4,1.2,0.7,1.5,0.9
				c0.5,0.4,0.9,0.8,1.2,1.3l0,0c0.9,1.7,0.4,3.4-1.7,5l0,0l0,0c-2.1,1.3-3.6,2.4-4.4,3.1l0.1,0c-0.1,0-1.3,1-3.6,2.8
				c-1.9,1.6-3.1,2.2-3.5,1.8c-0.3-0.3-0.1-0.8,0.5-1.5c0.7-0.9,1.1-1.4,1.1-1.6l0.2,0.1c0.4-1.4,0.2-2.6-0.4-3.7
				c-0.5-0.7-1.4-1.6-2.9-2.7c-1.7-1.3-2.8-2.3-3.4-3c-1.1-1.4-1.6-2.9-1.5-4.6c0-0.4,0.1-0.9,0.3-1.5l0,0c0.1-0.4,0.2-0.8,0.3-1.2
				c-1.7,0.9-2.8,1.5-3.3,1.9c-1,0.7-1.8,1.3-2.4,2c0.3,0.5,0.3,0.8-0.1,1.2c-0.6,0.3-1,0.6-1.2,0.8l-0.1-0.1
				c-1.2,2.5-2,4.4-2.3,5.5c-0.6,2.1-0.5,3.8,0.3,5.1c0.2,0.3,1.5,1.7,3.8,4.2l0,0c1.9,2,2.6,3.7,2.1,4.9c-0.3,0.8-1,1.6-2.3,2.3
				l0,0c-1.3,0.7-2.3,1.2-2.9,1.6l0,0c-1.3,1-2.3,1.7-3,2.1c-1.2,0.8-2.3,1.5-3.4,2.2c0,0-0.1,0-0.1,0.1c-0.2,0.1-0.8,0.6-1.7,1.2
				c-0.8,0.6-1.5,0.9-2.1,0.8l0.1,0.2c-1.2,1-1.9,1.2-2.1,0.4c-0.2-0.8,0.2-1.5,1.3-2.1l0.1,0.1c0.1-0.4,0.2-0.8,0.5-1.3l0,0
				c0.2-0.3,0.5-0.6,0.9-1.1c0,0,0,0,0,0c0.6-1.2,1-2.1,1.2-2.8c0.2-0.8,0.2-1.7,0-2.5c-0.2-1-1-2.3-2.3-4.1
				c-1.2-1.6-1.8-3.2-1.6-4.7c0-0.7,0.3-1.6,0.7-2.6c0.4-1,0.8-1.8,1-2.4c-2.1,0.8-4.3,2.4-6.9,4.6c-0.1,0.1-0.2,0.1-0.3,0.1
				c-0.1,0-0.2-0.1-0.3-0.2c-0.1-0.1-0.1-0.2-0.1-0.3c0-0.1,0.1-0.2,0.1-0.3c2.9-2.6,5.5-4.3,7.8-5l-0.2-0.2c0.2-0.2,0.7-0.5,1.7-1
				L60.2,85l0-0.1c-0.6,0.1-1.2,0.3-1.7,0.5c-0.7,0.3-1.2,0.4-1.4,0.5c-2.9,0.7-5.7-0.3-8.3-2.8l0,0c-0.6-0.7-1.6-1.7-2.9-3l0,0
				c-1-1-1.9-1.6-2.8-2.1l0,0c-1.3,0.1-2.3,0.2-3,0.3c-0.2,0.1-0.5,0.1-0.8,0.1c-0.6,0-1,0-1.4,0.2C37.4,79,36.8,79.3,36.4,79.5z
				 M84.5,78.2L84.5,78.2c2.4,1.9,4,3.4,4.6,4.5c1,1.8,1.1,3.8,0.3,6.3l0.1,0.1c0.8-0.8,2.4-1.9,4.6-3.3c1.4-1.2,1.8-2.3,1.3-3.4
				c-0.2-0.3-0.5-0.6-0.9-0.9c-0.2-0.2-0.7-0.4-1.3-0.8l0,0c-3.4-1.9-5.5-3.4-6.2-4.4c-1.7-2.1-1.6-4.6,0.4-7.5l-0.1,0
				c0,0,0-0.1,0-0.2c0-0.1,0-0.1,0-0.1c-0.4,0.2-0.9,0.5-1.6,1c-0.7,0.5-1.3,0.8-1.8,0.9c0,0.3-0.2,0.6-0.4,0.8l0,0l0,0
				c-0.1,0.1-0.2,0.2-0.3,0.3c0.1,0.2,0.1,0.5-0.1,0.7c-0.3,0.2-0.6,0.4-0.7,0.5l-0.2-0.2c-0.7,1.1-0.8,2.2-0.2,3.1l0,0
				C82.2,76.2,83.1,77.1,84.5,78.2z M83.9,79L83.9,79c-1.6-1.2-2.5-2.2-2.9-2.7c-0.7-1.1-0.8-2.3-0.1-3.6c-0.3,0.1-0.7,0.4-1,0.9
				c-0.5,0.7-0.8,1.2-1,1.3l-0.1-0.1c-0.1,0.4-0.2,1-0.3,1.5l0,0c-0.1,0.6-0.2,1-0.3,1.3c-0.1,1.4,0.3,2.7,1.2,3.8
				c0.5,0.6,1.6,1.6,3.2,2.8c1.6,1.2,2.7,2.2,3.2,3c0.8,1.2,1,2.5,0.7,4.1c0.3-0.1,0.5-0.4,0.8-0.9c0.4-0.7,0.7-1.1,0.8-1.2l0.1,0
				c0,0,0-0.1,0-0.1c0.9-2.3,0.9-4.2-0.1-5.8C87.6,82.2,86.2,80.8,83.9,79z M64,95.7c0.6,0.5,1.9,1.2,3.7,2.1l0,0
				c1,0.5,1.4,1.2,1.2,2.2c-0.1,0.8-0.8,1.8-1.9,3l0,0l0,0c-2.6,2.2-4.1,3.7-4.7,4.4c1-0.6,2-1.3,3.1-2c0.7-0.5,1.7-1.2,3-2.1l0,0
				c0.6-0.4,1.6-1,3-1.7c1-0.6,1.6-1.1,1.8-1.7c0.3-0.9-0.4-2.2-1.8-3.8l0,0c-2.5-2.6-3.8-4.1-4-4.4c-0.9-1.6-1.1-3.6-0.4-6
				c0.3-1.2,1.1-2.9,2.2-5.4l-0.1,0L69,80.3c-0.6,0.3-1.3,0.8-2.2,1.4l0,0c-1.1,0.8-2,1.4-2.6,1.6l0.1,0.2c-0.9,0.5-1.6,1.1-2.2,1.9
				c-0.1,0.3-0.5,1-1.1,2.3c0.1,0.6,0.2,1.5,0.2,2.4l0,0c0,1,0.1,1.7,0.3,2.2C62,93.7,62.8,94.8,64,95.7z M59.4,108.7L59.4,108.7
				c-0.2,0.3-0.3,0.5-0.3,0.8l0,0l0,0.1c0.3-0.1,0.6-0.2,1-0.5c0.9-0.7,1.4-1.1,1.7-1.3l0-0.1c-0.1,0-0.1,0-0.2,0
				c-0.3,0.1-0.5,0.2-0.7,0.2l0,0c-0.3,0-0.5,0-0.8-0.1C59.8,108.1,59.6,108.4,59.4,108.7z M57.9,92.8c-0.1,1.3,0.4,2.6,1.4,4
				c1.4,1.9,2.2,3.4,2.5,4.5c0.2,1,0.2,2,0,3c-0.2,0.7-0.5,1.6-1.1,2.7c0.1,0,0.1,0,0.2,0l0,0l0,0c0.1,0,0.3-0.1,0.4-0.1
				c0-0.1,0.1-0.1,0.1-0.2c0.6-0.7,2.2-2.2,4.8-4.5c0.9-1,1.5-1.8,1.6-2.4c0.1-0.4-0.1-0.8-0.6-1l0,0c-2-1-3.3-1.7-3.9-2.2
				c-1.4-1-2.3-2.3-2.8-3.9c-0.2-0.6-0.3-1.4-0.3-2.5l0,0c0-1-0.1-1.8-0.2-2.4l-0.3,0.2l0,0c-0.2,0.6-0.6,1.5-1.1,2.7
				C58.1,91.4,57.9,92.2,57.9,92.8z M44.9,76.8L44.9,76.8c-0.3,0.1-0.6,0.2-0.8,0.3c0.9,0.5,1.8,1.2,2.7,2.1l0,0
				c1.3,1.4,2.2,2.4,2.8,3l0,0c2.2,2.2,4.6,3,7.2,2.5l0,0c0.2,0,0.6-0.2,1.3-0.4l0,0c0.6-0.2,1.3-0.4,2-0.5c0.1,0,0.1,0,0.2,0l0-0.1
				c0.2-0.1,0.5-0.1,0.9-0.1c0.4,0,0.6,0,0.7-0.1c-0.4-0.1-1.2-0.3-2.2-0.4c-1.6-0.3-2.6-0.7-3.1-1.3c-1.4-1.8-2.8-3.1-4-3.9
				c-1.8-1.1-3.7-1.5-5.8-1.2l0,0l0,0C45.9,76.7,45.3,76.7,44.9,76.8z M65,62.8c1.2,0.3,2.4,0.9,3.5,2c0.4,0.3,1.5,1.4,3.2,3.3l0,0
				c2.4,2.5,4.7,3.6,7,3.3l-0.1-0.2c0.4-0.2,0.9-0.4,1.5-0.6c0.3-0.1,0.8-0.2,1.4-0.3c0.1,0.1,0.1,0.2,0.1,0.3c0,0.1,0,0.2,0.1,0.3
				l0.5-0.2l0,0c0.1-0.1,0.3-0.3,0.5-0.4c0,0,0.1-0.1,0.1-0.1c-0.6-0.1-1.3-0.2-2.2-0.4l0,0l0,0c-1.1-0.2-1.9-0.6-2.5-1.2l0,0
				c-0.5-0.4-0.7-1-0.8-1.7c-0.1-0.7-0.2-1.1-0.3-1.3c-0.6-1.1-1.7-1.9-3.4-2.5c-1.1-0.4-3-0.8-5.7-1.3c0,0,0,0-0.1,0l-0.1,0.2
				c-0.1-0.1-0.2-0.1-0.4-0.1c-0.2,0-0.4,0-0.4-0.1l0-0.1c-0.3,0-0.6,0.2-1,0.3c-0.5,0.2-0.8,0.4-1.1,0.5L65,62.8z M69.8,60.7
				c-0.4,0.1-0.8,0.3-1.2,0.5c2.5,0.5,4.3,0.9,5.3,1.2c2,0.6,3.3,1.6,3.9,2.9c0.1,0.2,0.2,0.7,0.4,1.6c0.1,0.5,0.2,0.9,0.6,1.2l0,0
				c0.4,0.4,1.1,0.7,2,0.9l0,0c1,0.1,1.8,0.3,2.4,0.4c0,0,0.1,0,0.2-0.1c0.2,0,0.3,0,0.4,0.1c0,0,0,0,0,0c0.5-0.1,1-0.3,1.6-0.8
				c0.8-0.6,1.5-1,2.1-1.2l0,0c0.1-0.2,0.5-0.5,1.2-0.8c0.7-0.3,1.1-0.5,1.2-0.8c-0.2,0.2-0.5,0.2-0.8,0c-0.9,0.3-1.9,0.4-3,0.3l0,0
				c-1.4-0.1-2.6-0.4-3.5-0.9c-1.2-0.6-2.1-1.8-2.8-3.6c-0.5-1.3-1.2-2.2-2.2-2.6l0,0c-0.9-0.4-1.8-0.5-2.6-0.2
				c-1.4,0.6-2.6,1-3.6,1.5C71,60.4,70.5,60.5,69.8,60.7z M90.7,49.8c0.4,0.1,0.8,0.3,1.3,0.4l0,0c0.8,0.2,1.3,0.4,1.7,0.6l0,0
				c0.8,0.4,1.6,1.2,2.5,2.4l0,0c0.8,1.1,1.5,1.8,2.2,2.2l0,0c1,0.6,2.1,1,3.3,1.1c0.9,0,2.2-0.1,3.9-0.3l-0.1-0.2
				c0.7-0.2,1.3-0.4,1.6-0.4c0.6-0.1,1.1,0,1.4,0.2l0,0.1c0.7-0.5,1.7-1.1,3-2l-0.1-0.1l0,0c-0.7-0.1-1.6-0.3-2.7-0.4l0,0l0,0
				c-1.1-0.2-2.1-0.6-3-1.1c-0.8-0.5-1.6-1.3-2.2-2.3l0,0c-0.5-0.9-1-1.5-1.4-1.7l0,0c-0.9-0.6-2-0.7-3.4-0.5l0,0
				c-1.7,0.4-3,0.7-3.9,0.8l0,0.1c-0.4-0.1-0.9,0.1-1.5,0.5C93,49.7,92.5,50,92.2,50c-0.1,0-0.4-0.2-1-0.5
				C90.9,49.3,90.7,49.4,90.7,49.8z M95.3,47.5c0.8-0.1,2-0.4,3.4-0.7l0,0c1.6-0.3,3,0,4.1,0.7l0,0c0.5,0.3,1,1,1.7,2.1
				c0.5,0.9,1.2,1.5,1.9,2c0.7,0.5,1.6,0.8,2.7,1l0,0c1.1,0.2,2.1,0.3,2.8,0.4l0,0l1.5-0.3c0.6-0.1,0.9,0.1,1.1,0.4
				c0.4-0.2,0.9-0.4,1.5-0.7c0.5-0.2,0.8-0.4,1.1-0.7l-0.1-0.1c-1-0.1-2.4-0.2-4.3-0.5l0,0c-1.9-0.3-3.4-0.9-4.4-1.7
				c-0.2-0.2-1.2-1.4-2.8-3.4l0,0.1c-0.3-0.2-0.7-0.5-1-0.8l0.1-0.1c-1.3-1-2.9-1.1-4.7-0.4C99.3,45,97.8,45.9,95.3,47.5
				C95.3,47.5,95.3,47.5,95.3,47.5z M105.3,59.4c-0.7,0.3-1.1,0.5-1.4,0.7c-0.2,0.6-0.5,1.2-1.1,1.9c-0.4,0.5-0.5,1-0.5,1.4
				c0.2,0.7,0.7,1.2,1.5,1.6l0,0c1.3,0.4,2.2,0.8,2.8,1.1l0,0c1.5,0.8,2.5,1.7,3,3l0,0c0.5,1.2,0.5,2.4,0,3.7
				c0.4-0.2,0.9-0.5,1.4-0.9l0,0c0.9-0.6,1.6-1.1,2-1.3l0,0c-0.1-0.2,0-0.4,0.4-0.6c0.4-0.2,0.5-0.4,0.5-0.6l0.2,0.1
				c0.5-1.1,0.5-2.1-0.2-2.9c-0.4-0.5-1.4-1.3-2.9-2.2l0,0c-1.6-1.1-2.6-2-3.1-2.8c-0.7-1.1-0.8-2.5-0.3-4c-0.1,0-0.2,0.1-0.3,0.3
				c-0.2,0.2-0.3,0.4-0.5,0.5C106.5,58.8,106,59.1,105.3,59.4z M108.7,57.6c-0.5,1.3-0.5,2.4,0.1,3.4l0,0c0.4,0.7,1.4,1.5,2.8,2.5
				l0,0c1.7,1.1,2.7,1.9,3.1,2.5c0.8,1.1,1,2.2,0.5,3.6l0,0.1c1.6-0.7,3.2-1.9,4.8-3.5l0,0c0-0.2,0-0.4-0.1-0.5l0.1-0.1
				c-0.3-0.3-0.8-0.6-1.5-1l0,0c-1-0.5-1.5-0.8-1.7-0.9c-2.1-1.6-2.7-3.5-2-5.7l0,0c0.4-1.3,1.6-3.1,3.6-5.5c0-0.1-0.1-0.2-0.3-0.1
				c-0.2,0.1-0.4,0.2-0.4,0.3l0-0.1c-0.4,0.3-0.9,0.7-1.6,1c-0.7,0.3-1.3,0.6-1.7,0.8l0,0c-0.2,0.3-0.6,0.6-1.1,0.9
				c-0.4,0.2-0.8,0.4-1.2,0.4l0,0c-1.1,0.7-1.9,1.3-2.6,1.7c-0.1,0.3-0.3,0.5-0.7,0.7L108.7,57.6z M122.6,35.7L122.6,35.7
				c1.6,0.4,2.7,1.3,3.4,2.6c0.7,1.3,1.2,2.2,1.7,2.6l0,0c0.5,0.5,1.4,0.8,2.5,0.8c0.2,0,0.6,0,1.3-0.2l0,0c0.6-0.1,1.1-0.1,1.5-0.1
				l0-0.1c0.3-0.2,0.7-0.4,1.3-0.6c0.5-0.2,0.7-0.3,0.9-0.4c-2-0.7-3.1-1.1-3.4-1.2l0,0c-1.4-0.6-2.4-1.6-3-2.8l0,0
				c-0.1-0.2-0.3-0.7-0.5-1.6c-0.1-0.5-0.3-0.9-0.5-1.1c-0.4-0.3-1.1-0.4-2-0.2c-1.2,0.3-2.1,0.4-2.7,0.3L123,34
				c-0.3,0.1-1,0.2-2.1,0.4c-0.8,0.1-1.5,0.3-1.8,0.6C120.6,35.2,121.8,35.5,122.6,35.7z M136,45.6L136,45.6
				c0.2,0.9,0.7,1.5,1.5,1.9l0,0c0.2,0.1,1.2,0.3,3,0.8c1.3,0.3,2.2,1,2.4,2.1c0.1,0.3,0,0.8-0.2,1.6c-0.2,0.6-0.3,1-0.4,1.3l0,0.1
				c0.5-0.3,1.4-0.7,2.6-1.3c1.2-0.7,1.9-1.1,2-1.3l0,0l0,0c0,0-0.1-0.1-0.1-0.2c0,0,0,0,0,0c-0.2-0.1-0.4-0.3-0.8-0.6l0,0l0,0
				c-2.3-2.2-3.7-3.8-4.3-5c-1.2-2.3-0.9-4.5,0.8-6.6c-0.1-0.1-0.1-0.2-0.3-0.2l-0.1-0.2c-1.5,1.5-2.9,2.3-4.3,2.6L138,41
				c-0.7,0.4-1.2,0.7-1.5,0.8c-0.5,0.3-0.7,0.6-0.8,0.9l-0.2-0.1C135.7,44,135.9,45,136,45.6z M134.5,57.9c0.9-0.3,1.9-0.8,3-1.4
				c0.5-0.3,1.6-0.9,3.2-1.9c0-0.1,0-0.3,0.1-0.5c0-0.2,0.1-0.4,0.3-0.5l0.1,0c0.1-0.4,0.2-1,0.5-1.8c0.2-0.5,0.2-0.9,0.2-1.1l0,0
				c-0.2-0.7-0.8-1.2-1.7-1.4c-1.9-0.5-3-0.8-3.2-0.9l0,0c-1.1-0.6-1.8-1.5-2-2.6c-0.1-0.6-0.3-1.5-0.5-2.8c-0.1-0.1-0.3,0-0.4,0.2
				c-0.1,0.2-0.3,0.2-0.4,0.2c-0.8,0.9-1.5,1.6-2.1,2l0.1,0.1c0.1,0.2,0,0.5-0.2,0.7c-0.2,0.2-0.4,0.4-0.6,0.5c0,0,0,0.1-0.1,0.1
				c-0.3,0.5-0.4,0.9-0.3,1.4c0.2,0.5,0.6,0.9,1.3,1.3c1,0.5,1.7,0.9,2.1,1.1c0.9,0.5,1.5,0.9,1.8,1.3l0,0
				C136.6,53.1,136.2,55.1,134.5,57.9z M123.3,32.7l0.1,0.1c0.5,0,1.2-0.1,2-0.3c1.4-0.4,2.4-0.2,3,0.4c0.3,0.3,0.6,0.8,0.8,1.6
				c0.2,0.7,0.3,1.2,0.4,1.4c0.5,1,1.4,1.8,2.6,2.3l0,0c0.3,0.1,1.4,0.5,3.4,1.2l0-0.1c0.2,0,0.6,0.1,1.3,0.1c0.5,0,0.9,0.1,1.2,0.3
				c1-0.3,2.1-1,3.1-2l0,0c-1-0.2-2.3-0.4-4.1-0.7l-0.1,0c-1.9-0.5-3-1.5-3.4-2.8l0,0c-0.1-0.5-0.2-1.2-0.1-2.1
				c0-0.4-0.1-0.7-0.4-1.1l0,0c-1-1-2.5-1.2-4.6-0.5C128.1,30.5,126.2,31.3,123.3,32.7L123.3,32.7z"/>
		</g>
	</g>
	<g>
		<path fill-rule="evenodd" clip-rule="evenodd" fill="#999936" d="M259.9,101.4l-1.1-2.6l-4.3-4.3c0,7.4-1.9,14.3-5.6,20.7
			c-3.8-8.2-2.6-15.7,3.6-22.6l-7.2-6.2l-0.3,0.3l-0.3,0c-1.1,6.4-4.5,11.3-10,14.5c-1.7-7.3,0.8-12.8,7.6-16.6l-6.3-4.4
			c-1.3,7.2-4.6,13.3-9.9,18.3l0,0c-1.1-8.9,1.2-15.6,6.8-20.1l-6.1-3.7l-0.2,0.1l-1-0.5l-0.3,0.3c-0.5,6.3-3.3,11.4-8.2,15.3
			l-0.1,0.4c-1.4-7.1,0.4-12.7,5.2-16.8c-2.1-0.9-4.2-1.3-6.5-1.4l-0.3,0.4c0,7.1-2.5,13.2-7.5,18.3c-2-7.1-0.8-13.4,3.6-18.8
			l-8.2-0.5l-0.5,0.6l0.1,0.4l-0.2,0.2c1,7.2-0.6,13.7-4.9,19.5l0.1,0.9c-3-7.1-2.5-13.7,1.6-19.8l-0.2-0.3l0.4-1l-7.6-0.3l-0.5,0.8
			c-0.1,6.2-1.4,12.1-4,17.7c-3.1-7.2-3-13.4,0.3-18.5c-3.4-0.4-6.7-1.3-9.9-2.8c0.8,8.1-1.5,15.3-6.8,21.5
			c-2.8-7.1-1.5-14.4,4-21.9c-4.1-1.4-8-3.2-11.7-5.6c-0.3,6.7-2.9,12.4-7.8,17c-1.5-6.9,0.3-12.9,5.1-18.1l-0.1-0.5l-10.3-5.7
			l-0.2,0.2c1.9,6.6,1.3,13-1.8,19.1c-3.5-7-3.9-14-1.2-21.2l-9.8-4.7c2.2,6.6,2,13-0.7,19.3c-4.9-6.4-5.7-13.3-2.2-20.5l-6.2-2.5
			l-0.2-0.6l0.5-0.4l7.1,2.5c2-8.9,7.1-14.9,15.3-17.9c-1.8,8.1-6.2,14.4-13.2,19l10,4.9l1-0.7c2.3-8.1,7.5-13.3,15.7-15.4
			c-1.2,7.9-5.8,13.8-13.6,17.7l10.5,6l0.4-0.2c0.5-8.6,4.5-15,12.1-19.1c1.2,8.4-2,15.4-9.4,21c3.4,2.2,7,4,10.9,5.2l0-0.6l0.3-0.2
			c0.8-6.6,4.2-12.3,10.4-17c-0.1,7-2.5,13.3-7.1,18.7c3.3,1.5,6.8,2.3,10.4,2.2c-1-5.9,1-11.3,6.1-16.2c1.9,5.9,0.9,11.3-2.9,16.3
			l7.5,0.4l0.3-0.6c-1.9-7.3,0.1-13.4,5.9-18.2c3.5,6.7,2.7,12.8-2.5,18.4l10.4,0.3l-0.8-6.2c1-5.5,4.5-9.3,10.7-11.3
			c-0.1,7.1-2.9,13-8.3,17.6l7.3,1.7l0.1-0.2l0.5,0.1c4.1-6.8,10.1-10.5,17.9-11.2c-2.7,6.5-7.4,10.6-14.1,12.5l7,4.2
			c4.8-8,11.9-10.6,21.2-7.6c-4.5,6.5-10.8,9.5-18.7,9.2l7.3,4.8c5.1-6.9,12.3-9.1,21.6-6.4c-5.9,4.4-12.5,6.9-19.8,7.5l7,5.9
			c7-8.6,15.3-9.8,24.8-3.5l0,0c-7.9,3.6-15.7,5.3-23.6,4.9l0.9,0.6l5.9,5.6c7.2,1,12.6,4.6,16.1,10.8c-6.9,2.3-12.4-0.2-16.6-7.5
			C260.3,102.3,260.1,101.9,259.9,101.4z"/>
	</g>
	<g display="none">
		<g display="inline">
			<path fill-rule="evenodd" clip-rule="evenodd" fill="#F6A5C0" d="M93.4,57.1l0.7-2.1c0.9-1.2,2.1-2.6,3.7-4.2
				c1.7-1.8,3.2-3.1,4.5-4c0.8-0.6,2.2-0.5,4.3,0.1c1.9,0.6,3.1,0.6,3.6-0.1c1-1.2,1.6-1.9,1.8-2c0.7-0.4,1.8-0.3,3.3,0.2
				c1.2,0.4,2.7,1,4.4,1.8c1.7,0.8,3.1,1.3,4,1.6c1.8,0.6,3.4,1,4.8,1.2c1.9,0.3,2.9,0.2,3.1-0.3c0.4-1.1-0.3-2.2-2-3.1
				c-1-0.5-3.2-1.3-6.4-2.3c-6.9-2.2-10.8-4.4-11.8-6.7c-0.2-0.5-0.1-1.4,0.2-2.6c0.2-0.7,0.6-2,1.2-3.9c0-0.2-0.1-0.8-0.4-1.8
				c-0.3-1-0.5-1.7-0.5-2.1c0-1.1-0.1-3.2-0.3-6.4c-0.2-2,0-3.7,0.4-5.1c0.4-1.3,1.4-2.6,2.9-3.9c2.1-1.8,3.2-2.9,3.4-3.1l-0.1,0.2
				c-0.1,2.8,0.5,4.7,1.9,5.6c2.7,1,5.3,2,7.7,3c-0.1,2.1,0.6,3.8,2,5.2c0.6,0.5,2.1,1.6,4.7,3.1c2,1.2,3.3,2.5,3.9,3.7
				c0.7,1.4,0.8,3,0.4,4.9c-0.1,0.6-0.3,1.3-0.5,1.9c-0.4,1.1-0.7,1.7-1,1.9c-0.3,0.2-0.7,1-1.2,2.4c-0.4,1.1-0.5,2.7-0.4,4.7
				c0.1,2.6,0.7,4,1.8,4.4c0.4,0.1,1-0.4,1.8-1.6c0.8-1.1,1.3-2.1,1.6-3c0.7-2,0.6-3.9,0-5.8c-0.7-1.9-0.8-3.4-0.5-4.5
				c0.7-2,1.4-3.2,2.1-3.7c0.3-0.2,1.4-0.5,3.5-1c1.6-0.3,2.8-0.9,3.6-1.8c0.5-0.5,1.2-1.2,2.1-2.3c1.2-0.9,3.2-1.6,6.1-2.1
				c1.5-0.2,3-0.4,4.6-0.6c1.3-0.4,2.7-0.6,4.1-0.9c1.3-0.3,3.1-0.9,5.4-1.9l-0.1,0.2c-0.3,0.2-0.7,1-1.3,2.6
				c-0.4,1.2-0.5,3.2-0.2,5.8c0.3,2.7,0.4,4.2,0.3,4.6c-0.4,1.1-1.2,1.9-2.6,2.4c-1.4,0.6-2.2,1.3-2.5,2.2c-0.2,0.5-0.1,1.7,0.2,3.7
				c0.3,2,0.4,3.4,0.1,4.2c-0.9,2.7-3.5,4.5-7.8,5.4c-3.4,0.7-6.1,0.7-7.9,0.1c-0.1-0.1-0.9-0.4-2.4-1c-1.6-0.6-2.8-1-3.7-1.2
				c-0.6-0.1-1.6,0.3-3.1,1.2c-0.2,0.1-0.4,0.3-0.6,0.4c2.9,0.3,5.7,0.9,8.4,1.7c-0.1,0.1-0.1,0.2,0,0.2c0.2-0.1,0.3-0.1,0.4-0.1
				c-0.1,0-0.2-0.1-0.4-0.1c0.1-0.2,0.4-0.2,1.1,0.1c0.7,0.3,1.6,0.8,2.8,1.6c2.4,1.7,3.6,2.6,3.6,2.6c1.7,0.6,3.4,0.6,5.2,0
				c1.8-0.5,4-0.3,6.7,0.6c1.6,0.5,3.7,2.7,6.4,6.4c2.4,3.4,3.6,5.6,3.7,6.5c-0.1,0-0.2,0-0.2,0.1c-0.9,0-2.5,0.1-4.8,0.3
				c-2.7,0.3-4.2,0.6-4.8,1c-2.7,2-5,3.1-6.9,3.3c-1.3,0.1-3.6-0.4-6.8-1.5c-5.5-1.9-9.2-5-11-9.4c-0.3-0.6-0.5-1.3-0.7-2
				c-0.4-1.4-1-3.4-1.7-5.9c-0.7-1.7-1.7-3-3.1-3.9c0.1,0,0.1,0,0.1,0l-0.6-0.3c-0.2-0.1-0.4-0.2-0.6-0.3l-0.8-0.1
				c-0.5,1.3,0,3.1,1.4,5.3c1.5,2.4,2.7,4.4,3.5,6.1c0.3,0.6,0.6,1.2,0.8,1.8c0,0.1,0.1,0.3,0.2,0.4c0.2,0.6,0.5,2.8,0.8,6.6
				c0.3,4,0.4,6.5,0.1,7.3c-0.3,0.7-1.1,1.6-2.5,2.6c-1.4,1-2.1,1.6-2.2,1.9c-0.2,0.6-0.2,1.3-0.2,2.2c0.1,0.9,0,1.8-0.3,2.6
				c-0.1,0.3-1.6,1.7-4.7,4.4c-3.2,2.9-5.1,4.2-5.8,4c-0.5-0.2-1.5-1.7-2.8-4.5c-1.9-3.9-3.4-6.9-4.6-8.8c-1.5-2.4-1.8-5.8-1-10.2
				c0.3-1.4,1-3.9,2.2-7.4c0.7-2.1,1.5-4.1,2.3-5.7c0.9-1.9,1.7-3.1,2.2-3.6c0.3-0.2,1.5-0.7,3.8-1.6c1.4-0.5,2.4-1.2,2.9-2.1
				c-1.5-0.5-3.1-0.5-4.8,0.1c-1.8,0.6-3.3,1.7-4.4,3.4c-1.2,2-2.3,3.7-3.4,5.1c-2.1,2.7-3.8,3.8-5.1,3.4c-0.4-0.1-0.6-0.2-0.6-0.3
				c-0.1-0.1-0.3-0.3-0.5-0.7l-1.8-0.6c-0.4,0.9-0.9,1.6-1.5,2.2c-1.1,1-2.4,1.3-4.1,0.7c-2.7-0.9-5.6-2.7-8.7-5.2
				C96,59.7,94.6,58.4,93.4,57.1z"/>
		</g>
		<g display="inline">
			<path fill-rule="evenodd" clip-rule="evenodd" fill="#D21E4A" d="M133.2,59.7c-0.5-1.9-0.2-2.1,1.1-0.4l0,0.1
				C134,59.7,133.7,59.8,133.2,59.7L133.2,59.7z M135.5,60c-0.6-1.3-0.3-1.5,0.9-0.7l0,0.1c-0.1,0.3-0.2,0.5-0.6,0.6
				C135.7,60,135.6,60,135.5,60z M135,56.7c-0.6-0.1-0.9-0.4-0.8-1c0-0.1,0-0.1,0-0.1c0.9-0.6,1.4-0.4,1.7,0.6
				c-0.1,0.2-0.2,0.4-0.4,0.5C135.3,56.7,135.2,56.8,135,56.7z M136.1,58.7c-0.5-1.9-0.2-2.1,1.1-0.4l0,0.1
				C136.9,58.7,136.6,58.8,136.1,58.7L136.1,58.7z M132.9,56.4c-0.1,0.3-0.2,0.5-0.6,0.6c-0.2,0-0.3,0-0.4,0
				c-0.6-1.3-0.3-1.5,0.9-0.7L132.9,56.4z M142,54.1c-0.2,0-0.3,0-0.4,0c-0.6-1.3-0.3-1.5,0.9-0.7l0,0.1
				C142.5,53.9,142.3,54.1,142,54.1z M134.4,50.8c-0.6-1.3-0.3-1.5,0.9-0.7l0,0.1c-0.1,0.3-0.2,0.5-0.6,0.6
				C134.6,50.7,134.5,50.7,134.4,50.8z M133.6,53.8c-0.6-1.3-0.3-1.5,0.9-0.7l0,0.1c-0.1,0.3-0.2,0.5-0.6,0.6
				C133.8,53.8,133.7,53.8,133.6,53.8z M138.9,51.8c-0.5-0.1-0.7-0.4-0.6-0.9c0-0.1,0-0.1,0-0.1c0.8-0.6,1.3-0.4,1.5,0.6
				c-0.1,0.3-0.3,0.4-0.6,0.5C139,51.8,138.9,51.8,138.9,51.8z M130.8,59.3c-0.6-1.3-0.3-1.5,0.9-0.7l0,0.1
				c-0.1,0.3-0.2,0.5-0.6,0.6C131,59.2,130.9,59.2,130.8,59.3z M132,51.1l0,0.1c-0.1,0.3-0.2,0.5-0.6,0.6c-0.2,0-0.3,0-0.4,0
				C130.5,50.6,130.8,50.3,132,51.1z M131.8,49.2c0-0.1,0-0.1,0-0.1c0.8-0.6,1.3-0.4,1.5,0.6c-0.1,0.3-0.3,0.4-0.6,0.5
				c-0.2,0-0.3,0-0.4,0C132,50,131.8,49.7,131.8,49.2z M127.8,51.5c-0.2,0-0.3,0-0.4,0c-0.6-1.3-0.3-1.5,0.9-0.7l0,0.1
				C128.3,51.3,128.1,51.5,127.8,51.5z M148.1,63.3c-0.6-1.3-0.3-1.5,0.9-0.7l0,0.1c-0.1,0.3-0.2,0.5-0.6,0.6
				C148.3,63.3,148.2,63.3,148.1,63.3z M146.6,59.4c-0.5-0.1-0.7-0.4-0.6-0.9c0-0.1,0-0.1,0-0.1c0.8-0.6,1.3-0.4,1.5,0.6
				c-0.1,0.3-0.3,0.4-0.6,0.5C146.8,59.4,146.7,59.4,146.6,59.4z M147.9,56.1c-0.1,0.3-0.2,0.5-0.6,0.6c-0.2,0-0.3,0-0.4,0
				c-0.6-1.3-0.3-1.5,0.9-0.7L147.9,56.1z M144.6,57.6c-0.1,0.3-0.3,0.5-0.6,0.6c-0.2,0-0.3,0-0.4,0c-0.6-1.3-0.3-1.5,0.9-0.7
				L144.6,57.6z M146.2,54.3c-0.5-0.1-0.7-0.4-0.6-0.9c0-0.1,0-0.1,0-0.1c0.8-0.6,1.3-0.4,1.5,0.6c-0.1,0.3-0.3,0.4-0.6,0.5
				C146.4,54.3,146.2,54.3,146.2,54.3z M144.2,54.7c-0.2,0-0.3,0-0.4,0c-0.6-1.3-0.3-1.5,0.9-0.7l0,0.1
				C144.7,54.4,144.5,54.6,144.2,54.7z M145.8,48.3c-0.2,0-0.3,0-0.4,0c-0.5-0.1-0.7-0.4-0.6-0.9c0-0.1,0-0.1,0-0.1
				c0.8-0.6,1.3-0.4,1.5,0.6C146.2,48.1,146,48.2,145.8,48.3z M130.7,43.1c-0.5-0.1-0.7-0.4-0.6-0.9c0-0.1,0-0.1,0-0.1
				c0.8-0.6,1.3-0.4,1.5,0.6c-0.1,0.3-0.3,0.4-0.6,0.5C130.8,43.1,130.7,43.1,130.7,43.1z M134.6,48.6c-0.6-1.3-0.3-1.5,0.9-0.7
				l0,0.1c-0.1,0.3-0.2,0.5-0.6,0.6C134.8,48.6,134.6,48.6,134.6,48.6z M133.4,46.8c-0.5-0.1-0.7-0.4-0.6-0.9c0-0.1,0-0.1,0-0.1
				c0.8-0.6,1.3-0.4,1.5,0.6c-0.1,0.3-0.3,0.4-0.6,0.5C133.6,46.8,133.5,46.8,133.4,46.8z M132.9,43.6c0.8-0.6,1.3-0.4,1.5,0.6
				c-0.1,0.3-0.3,0.4-0.6,0.5c-0.2,0-0.3,0-0.4,0c-0.5-0.1-0.7-0.4-0.6-0.9C132.9,43.7,132.9,43.7,132.9,43.6z M141.8,48l0,0.1
				c-0.1,0.3-0.2,0.5-0.6,0.6c-0.2,0-0.3,0-0.4,0C140.3,47.5,140.6,47.2,141.8,48z M142.6,43.7c0.8-0.6,1.3-0.4,1.5,0.6
				c-0.1,0.3-0.3,0.4-0.6,0.5c-0.2,0-0.3,0-0.4,0c-0.5-0.1-0.7-0.4-0.6-0.9C142.6,43.8,142.6,43.7,142.6,43.7z M144,46.3
				c-0.2,0-0.3,0-0.4,0c-0.6-1.3-0.3-1.5,0.9-0.7l0,0.1C144.6,46,144.4,46.2,144,46.3z"/>
		</g>
	</g>
	<g>
		<g>
			<path fill-rule="evenodd" clip-rule="evenodd" fill="#DCBFA4" d="M90.3,21.3c-4.1,1.6-8.2,1.9-12.5,1c0.7-1.6,1.9-2.9,3.4-3.8
				c2.7-1.7,5.5-1.8,8.4-0.3c-1.2-1.5-1.9-3.3-2.1-5.4c-0.2-2.6,0.5-5,2-7.2c0.3,0.4,0.6,0.9,0.9,1.3c2.2,3.1,3.2,6.5,3,10.3
				c0.6-0.6,1.2-1.2,1.8-1.8c1.8-1.7,4-2.9,6.4-3.4l0.8,0.3c-1.8,2.5-3.9,4.7-6.4,6.5c0.7,0,1.3,0,2,0.1c4.6,0.4,7.5,2.9,8.5,7.6
				c-0.6,0-1.2,0-1.8,0c-1.7-0.1-3.4-0.4-5.1-0.8l-0.3-0.2c-0.7-0.3-1.4-0.6-2.1-0.9c-1-0.5-1.9-1.1-2.6-1.9
				c-0.1,4.8-1.1,9.3-3.1,13.7c-1.6-1.7-2.6-3.6-3-5.8C87.8,27.4,88.4,24.2,90.3,21.3z"/>
		</g>
		<g>
			<path fill-rule="evenodd" clip-rule="evenodd" fill="#BE8B5A" d="M93.1,18.3c0.7-0.3,1.2-0.1,1.5,0.6c1.5,2.6,0.7,4-2.5,4.2
				C89.9,21,90.2,19.4,93.1,18.3z"/>
		</g>
	</g>
</g>
<g>
	<g>
		<path fill-rule="evenodd" clip-rule="evenodd" fill="#EFEEF7" d="M116.4,9.4c0.3-1.4,1-2,2.2-1.9c4.9,0.3,9.1,2,12.5,4.9
			c3.8,3.2,6.4,7,7.9,11.6c1.5,4.5,1.3,8.5-0.7,12.1c-1.5,2.5-3.5,4.6-6,6.3c-3.9-2-7.3-4.9-10.3-8.7c-2.9-3.7-4.8-7.5-5.7-11.7
			C115.5,18.2,115.5,14,116.4,9.4z"/>
	</g>
	<g>
		<path fill-rule="evenodd" clip-rule="evenodd" fill="#EFEEF7" d="M154.4,20.2c4.5-0.2,8.8,1,12.9,3.7c1,0.6,1.2,1.6,0.6,2.8
			c-2.1,4.2-4.6,7.6-7.6,10.1c-3.3,2.7-7.1,4.6-11.6,5.8c-4.6,1.2-9.1,1.4-13.4,0.7c-1-2.9-1.3-5.7-1-8.6c0.6-4,2.8-7.3,6.7-10
			C145,21.9,149.5,20.4,154.4,20.2z"/>
	</g>
	<path fill-rule="evenodd" clip-rule="evenodd" fill="#EFEEF7" d="M167.7,62.6c0,1.2-0.7,1.8-2.1,1.9c-4.7,0.3-8.9-0.2-12.6-1.5
		c-3.9-1.5-7.6-3.8-10.8-7.1c-3.3-3.5-5.8-7.3-7.3-11.3c2-2.3,4.3-4,7-5.1c3.7-1.5,7.7-1.2,12,0.8c4.4,2.1,7.9,5.2,10.6,9.3
		C166.8,53.3,167.9,57.7,167.7,62.6"/>
	<g>
		<path fill-rule="evenodd" clip-rule="evenodd" fill="#EFEEF7" d="M136.7,69.4c-3,3.3-7,5.5-11.8,6.5c-1.1,0.3-1.9-0.2-2.4-1.6
			c-1.5-4.5-2.1-8.6-1.8-12.5c0.4-4.2,1.7-8.3,4.1-12.3c2.5-4.1,5.5-7.5,9-10c2.7,1.3,5,3.1,6.8,5.4c2.4,3.2,3.2,7.2,2.3,11.8
			C142.1,61.6,140.1,65.8,136.7,69.4z"/>
	</g>
	<path fill-rule="evenodd" clip-rule="evenodd" fill="#EFEEF7" d="M98.4,31.4c4.2-2.1,8.3-3.2,12.2-3.4c4.2-0.2,8.5,0.7,12.8,2.5
		c4.4,1.9,8.1,4.4,11.1,7.6c-0.9,2.9-2.4,5.3-4.5,7.4c-2.9,2.8-6.7,4.1-11.5,3.9c-4.8-0.2-9.3-1.8-13.3-4.6c-3.7-2.6-6.4-6.2-8-10.8
		"/>
	<g>
		<path fill-rule="evenodd" clip-rule="evenodd" fill="#FAD2DE" d="M132,62.7c-0.3,0-0.5,0-0.8-0.1c-0.4-0.2-0.9-0.4-1.3-0.6
			c-0.1-0.1-0.2-0.2-0.2-0.4c-0.4-2.6-0.1-5.2,0.7-7.8c0.4-1.3,0.8-2.6,1.1-3.9c0.3-1.3,0.7-2.7,1-4c-5.4,1-10.6-0.2-15.4-3.5
			c-2.1-1.5-3.1-3.4-3-5.8c0-0.5,0.2-0.9,0.7-1.2c1.8-1.1,3.8-1.5,6-1.2c2.7,0.3,5,1.2,7,2.4c-3.6-3.9-5.4-8.5-5.4-13.6
			c0-1.4,0.6-2.5,1.9-3.2c1.6-0.9,3.2-0.9,4.8,0.2c1.5,1,2.8,2.3,3.8,3.8c1.8,2.8,3.1,5.7,3.8,8.9c0.2,1,0.4,1.9,0.5,2.8
			c3.6-3.5,7.9-6,12.7-7.6c2.1-0.7,3.9-0.3,5.2,1.1c0.3,0.3,0.4,0.7,0.3,1.1c-0.2,2-1.1,3.7-2.4,5.2c-2,2.1-4.2,4-6.7,5.4
			c3.2,0.7,5.8,2.3,7.8,5c0.9,1.3,1.8,2.6,2.6,3.9c1.4,2.5,1,4.5-1.1,6c-0.6,0.4-1.2,0.6-1.9,0.4c-1.9-0.4-3.7-1.1-5.3-2.3
			c-1.5-1.1-3.1-2.2-4.6-3.3c-1.2-0.8-2.3-1.7-3.5-2.6c-0.2,3.7-0.9,7.4-2.4,10.9c-0.8,2.1-2.3,3.3-4.3,3.7
			c-0.4,0.1-0.9,0.1-1.3,0.1L132,62.7z"/>
		<g>
			<polygon fill-rule="evenodd" clip-rule="evenodd" fill="#ED2891" points="125.1,44 129.7,42.8 131.7,41.4 133.2,41 125.2,37.8 
				132.9,40.4 127.9,32.7 134,40.8 135.7,40 136.8,40.3 141.4,39.1 139.8,40.4 135.6,41.3 142.7,44 135.3,42.3 140,52.7 134.8,43.8 
				130.7,54.6 133.9,42.1 128,52.6 129.1,49.1 133.4,41.7 129,43.4 			"/>
		</g>
	</g>
</g>
<g>
	<g>
		<path fill-rule="evenodd" clip-rule="evenodd" fill="#69C9CA" d="M66.5,46.5c-1.8-1.1-2.9-2.7-3.3-4.7c-0.5-2-0.2-3.9,0.9-5.7
			c1.1-1.8,2.7-2.9,4.7-3.3c2-0.5,3.9-0.2,5.7,0.9c1.8,1.1,2.9,2.7,3.3,4.7c0.5,2,0.2,3.9-0.9,5.7c-1.1,1.8-2.7,2.9-4.7,3.3
			C70.2,48,68.3,47.6,66.5,46.5z M64.7,31.2c-1.7,0.4-3.3,0.1-4.8-0.8c-1.5-0.9-2.5-2.3-2.9-4s-0.1-3.3,0.8-4.8
			c0.9-1.5,2.2-2.5,4-2.8c1.7-0.4,3.3-0.1,4.8,0.8c1.5,0.9,2.4,2.2,2.8,4c0.4,1.7,0.1,3.3-0.8,4.8C67.7,29.9,66.4,30.8,64.7,31.2z"
			/>
	</g>
	<g>
		<path fill-rule="evenodd" clip-rule="evenodd" fill="#3DB3B3" d="M64,36.8c3.8,2.5,4.7,5.5,2.9,9.1c0,0,0,0.1,0,0.1
			c-3.4-1.8-4.6-4.7-3.4-8.6C63.6,37.2,63.7,37,64,36.8z M64.1,28.4c0.9,0.8,0.8,1.5-0.3,2c-3.7-1.3-4.4-3.3-2.1-6
			c0.2-0.2,0.3-0.2,0.5,0.1c0.5,0.9,0.9,1.8,1.1,2.7C63.4,27.6,63.6,28.1,64.1,28.4z"/>
	</g>
</g>
</svg>
