<?xml version="1.0" standalone="no"?><!-- Generator: Adobe Fireworks CS6, Export SVG Extension by Aaron Beall (http://fireworks.abeall.com) . Version: 0.6.1  --><!DOCTYPE svg PUBLIC "-//W3C//DTD SVG 1.1//EN" "http://www.w3.org/Graphics/SVG/1.1/DTD/svg11.dtd"><svg id="Untitled-Page%201" viewBox="0 0 320 45" style="background-color:#ffffff00" version="1.1"	xmlns="http://www.w3.org/2000/svg" xmlns:xlink="http://www.w3.org/1999/xlink" xml:space="preserve"	x="0px" y="0px" width="320px" height="45px">	<path d="M 18.2488 20.0887 L 19.9326 21.749 L 24.5983 23.6482 C 22.2519 17.9958 21.4713 12.1351 22.2565 6.0668 C 27.7638 11.0704 29.24 17.1997 26.6845 24.4551 L 34.1133 26.8619 L 34.2673 26.5576 L 34.4552 26.4501 C 33.2745 21.1811 34.2611 16.4237 37.4137 12.1783 C 41.0261 17.1997 40.8715 22.2207 36.9494 27.24 L 43.1493 28.5996 C 41.833 22.7159 42.3945 17.0259 44.835 11.53 L 44.8373 11.5182 C 48.5162 17.9471 48.9141 23.7701 46.0317 28.9866 L 51.8746 29.8481 L 52.0014 29.6814 L 52.8976 29.7345 L 53.0605 29.3838 C 51.4722 24.4178 51.9351 19.6559 54.4487 15.0966 L 54.3501 14.7437 C 57.6431 19.6873 58.1069 24.5089 55.7411 29.2077 C 57.5843 29.2119 59.3737 28.8725 61.111 28.1885 L 61.2363 27.7831 C 58.9776 22.361 58.9244 16.9105 61.0786 11.4326 C 64.8842 16.1924 65.9773 21.3571 64.3577 26.9276 L 70.77 24.7012 L 71.0043 24.1021 L 70.8232 23.8051 L 70.9366 23.5884 C 67.9079 18.4247 67.0693 12.9505 68.42 7.1657 L 68.071 6.5025 C 72.6215 10.9408 74.3298 16.152 73.1943 22.1374 L 73.407 22.2738 L 73.4178 23.2066 L 79.3486 21.0062 L 79.4445 20.2612 C 77.524 15.5334 76.6497 10.618 76.8205 5.5127 C 81.4797 10.0511 83.3601 14.7793 82.4618 19.6966 C 85.1899 18.901 88.0074 18.552 90.913 18.6495 C 87.7011 12.7033 87.1496 6.5209 89.2578 0.1028 C 93.6863 4.6368 95.0125 10.6343 93.2374 18.0946 C 96.8138 17.8435 100.3647 18.0176 103.8903 18.6157 C 102.0057 13.3705 102.1768 8.2253 104.4024 3.1819 C 107.6971 7.951 108.3213 13.0974 106.2734 18.6208 L 106.5421 18.959 L 116.1888 20.0026 L 116.233 19.7727 C 112.6287 15.3253 111.0628 10.264 111.5347 4.5894 C 116.4392 8.8058 119.0034 14.0509 119.226 20.3245 L 128.2254 20.7667 C 124.4285 16.4578 122.5554 11.4844 122.6064 5.8474 C 128.4194 9.1763 131.1607 14.1412 130.8288 20.7424 L 136.3294 20.6554 L 136.6769 21.0799 L 136.4229 21.5316 L 130.2224 21.9142 C 131.5466 29.3264 129.5635 35.5064 124.2728 40.4542 C 123.0934 33.6897 124.4346 27.4581 128.2966 21.7586 L 119.0997 21.231 L 118.5869 22.0388 C 119.4297 28.9769 117.0921 34.5638 111.5721 38.7996 C 109.9828 32.3539 111.5559 26.4053 116.2917 20.9532 L 106.4146 19.7453 L 106.1412 20.0511 C 108.5355 26.7783 107.4748 32.9135 102.96 38.4556 C 99.3874 32.4102 99.5556 26.0797 103.4644 19.4645 C 100.1632 18.8615 96.8337 18.6907 93.4774 18.9516 L 93.6782 19.396 L 93.5376 19.6311 C 95.0677 24.9206 94.2195 30.3447 90.9925 35.9035 C 88.8629 30.496 88.67 24.9909 90.4135 19.3887 C 87.4122 19.2884 84.5264 19.8308 81.7552 21.0158 C 84.4235 25.2202 84.5948 29.9929 82.2677 35.3352 C 78.9366 31.4695 77.9417 27.0159 79.2826 21.9724 L 73.4015 24.0381 L 73.3498 24.5531 C 77.1147 29.5245 77.5589 34.7792 74.6817 40.3178 C 69.8676 36.3383 68.5443 31.3995 70.7115 25.5015 L 62.684 28.5628 L 65.2834 33.0228 C 66.3111 37.5558 64.7838 41.5732 60.7008 45.0739 C 58.5091 39.6098 58.7499 34.264 61.4246 29.0359 L 55.3616 30.0655 L 55.3262 30.2497 L 54.9227 30.3624 C 53.9628 36.8429 50.608 41.598 44.8596 44.6281 C 44.8788 38.8257 47.1373 34.1463 51.6365 30.5894 L 44.9483 29.6609 C 43.8376 37.3371 39.2589 41.5148 31.2128 42.1948 C 32.6143 35.8148 36.3851 31.498 42.5253 29.243 L 35.4203 27.8767 C 33.7413 34.7912 28.9263 38.7088 20.9767 39.6295 C 24.0978 34.3925 28.3377 30.3644 33.6956 27.545 L 26.5252 25.2834 C 23.9412 34.0914 18.0154 37.6286 8.748 35.8939 L 8.7413 35.8689 C 13.5668 30.5871 19.0487 26.8134 25.188 24.5487 L 24.3374 24.3851 L 18.0053 21.9745 C 12.2064 23.5317 6.9682 22.5007 2.292 18.8816 C 6.8186 14.9323 11.8279 15.0841 17.3203 19.3377 C 17.6404 19.574 17.9503 19.8247 18.2488 20.0887 Z" fill="#999933"/>	<path d="M 302.7202 20.0887 L 301.0364 21.749 L 296.3706 23.6482 C 298.717 17.9958 299.4976 12.1351 298.7124 6.0668 C 293.2052 11.0704 291.7289 17.1997 294.2845 24.4551 L 286.8556 26.8619 L 286.7017 26.5576 L 286.5138 26.4501 C 287.6945 21.1811 286.7078 16.4237 283.5553 12.1783 C 279.9428 17.1997 280.0974 22.2207 284.0195 27.24 L 277.8196 28.5996 C 279.1359 22.7159 278.5745 17.0259 276.1339 11.53 L 276.1317 11.5182 C 272.4528 17.9471 272.0549 23.7701 274.9372 28.9866 L 269.0944 29.8481 L 268.9676 29.6814 L 268.0714 29.7345 L 267.9085 29.3838 C 269.4967 24.4178 269.0338 19.6559 266.5202 15.0966 L 266.6189 14.7437 C 263.3259 19.6873 262.862 24.5089 265.2278 29.2077 C 263.3846 29.2119 261.5952 28.8725 259.858 28.1885 L 259.7326 27.7831 C 261.9913 22.361 262.0445 16.9105 259.8904 11.4326 C 256.0848 16.1924 254.9917 21.3571 256.6113 26.9276 L 250.199 24.7012 L 249.9646 24.1021 L 250.1458 23.8051 L 250.0324 23.5884 C 253.061 18.4247 253.8997 12.9505 252.5489 7.1657 L 252.8979 6.5025 C 248.3475 10.9408 246.6392 16.152 247.7746 22.1374 L 247.5619 22.2738 L 247.5511 23.2066 L 241.6204 21.0062 L 241.5245 20.2612 C 243.4449 15.5334 244.3192 10.618 244.1484 5.5127 C 239.4893 10.0511 237.6089 14.7793 238.5071 19.6966 C 235.7791 18.901 232.9616 18.552 230.056 18.6495 C 233.2678 12.7033 233.8193 6.5209 231.7112 0.1028 C 227.2827 4.6368 225.9564 10.6343 227.7316 18.0946 C 224.1551 17.8435 220.6042 18.0176 217.0787 18.6157 C 218.9632 13.3705 218.7922 8.2253 216.5665 3.1819 C 213.2718 7.951 212.6477 13.0974 214.6955 18.6208 L 214.4268 18.959 L 204.7801 20.0026 L 204.7359 19.7727 C 208.3403 15.3253 209.9061 10.264 209.4342 4.5894 C 204.5297 8.8058 201.9655 14.0509 201.743 20.3245 L 192.7436 20.7667 C 196.5404 16.4578 198.4136 11.4844 198.3626 5.8474 C 192.5495 9.1763 189.8082 14.1412 190.1402 20.7424 L 184.6395 20.6554 L 184.292 21.0799 L 184.5461 21.5316 L 190.7466 21.9142 C 189.4223 29.3264 196.5343 27.4581 192.6723 21.7586 L 201.8693 21.231 L 202.382 22.0388 C 201.5393 28.9769 203.8768 34.5638 209.3968 38.7996 C 210.9862 32.3539 209.413 26.4053 204.6772 20.9532 L 214.5543 19.7453 L 214.8277 20.0511 C 212.4335 26.7783 213.4942 32.9135 218.0089 38.4556 C 221.5816 32.4102 221.4134 26.0797 217.5046 19.4645 C 220.8058 18.8615 224.1353 18.6907 227.4916 18.9516 L 227.2907 19.396 L 227.4314 19.6311 C 225.9013 24.9206 226.7494 30.3447 229.9765 35.9035 C 232.106 30.496 232.299 24.9909 230.5555 19.3887 C 233.5567 19.2884 236.4426 19.8308 239.2137 21.0158 C 236.5455 25.2202 236.3741 29.9929 238.7012 35.3352 C 242.0323 31.4695 243.0272 27.0159 241.6864 21.9724 L 247.5675 24.0381 L 247.6191 24.5531 C 243.8542 29.5245 243.41 34.7792 246.2873 40.3178 C 251.1013 36.3383 252.4247 31.3995 250.2574 25.5015 L 258.285 28.5628 L 255.6856 33.0228 C 254.6578 37.5558 256.1852 41.5732 260.2681 45.0739 C 262.4599 39.6098 262.2191 34.264 259.5444 29.0359 L 265.6074 30.0655 L 265.6428 30.2497 L 266.0463 30.3624 C 267.0061 36.8429 270.3609 41.598 276.1093 44.6281 C 276.0901 38.8257 273.8316 34.1463 269.3324 30.5894 L 276.0207 29.6609 C 277.1313 37.3371 281.71 41.5148 289.7562 42.1948 C 288.3546 35.8148 284.5839 31.498 278.4436 29.243 L 285.5486 27.8767 C 287.2277 34.7912 292.0427 38.7088 299.9923 39.6295 C 296.8711 34.3925 292.6312 30.3644 287.2733 27.545 L 294.4438 25.2834 C 297.0278 34.0914 302.9536 37.6286 312.221 35.8939 L 312.2277 35.8689 C 307.4022 30.5871 301.9203 26.8134 295.7809 24.5487 L 296.6315 24.3851 L 302.9637 21.9745 C 308.7626 23.5317 314.0007 22.5007 318.6769 18.8816 C 314.1503 14.9323 309.1411 15.0841 303.6487 19.3377 C 303.3286 19.574 303.0187 19.8247 302.7202 20.0887 Z" fill="#999933"/>	<path d="M 170.0981 18.4146 C 170.4391 21.0576 169.7992 23.4196 168.1781 25.5023 C 166.5774 27.6007 164.4709 28.8042 161.8572 29.1117 C 159.243 29.4192 156.8836 28.7412 154.7792 27.0786 C 152.6953 25.4318 151.4835 23.2876 151.1424 20.6447 C 150.8014 18.0017 151.4306 15.6308 153.0313 13.5323 C 154.6524 11.4496 156.7702 10.255 159.3844 9.9474 C 161.9981 9.6399 164.3462 10.3091 166.4302 11.956 C 168.5346 13.6185 169.757 15.7716 170.0981 18.4146 ZM 179.1436 31.4784 C 177.0936 31.7196 175.2504 31.1934 173.6137 29.8999 C 171.9769 28.6065 171.0249 26.9237 170.7574 24.8511 C 170.49 22.7785 170.9858 20.9254 172.2448 19.2912 C 173.5038 17.6571 175.1581 16.7195 177.2081 16.4783 C 179.2582 16.2371 181.1013 16.7633 182.738 18.0567 C 184.3748 19.3502 185.3268 21.033 185.5943 23.1056 C 185.8617 25.1782 185.3659 27.0313 184.1069 28.6654 C 182.8479 30.2996 181.1937 31.2372 179.1436 31.4784 ZM 144.949 9.7062 C 146.5857 10.9997 147.5378 12.6824 147.8051 14.7545 C 148.0726 16.8271 147.5768 18.6807 146.3178 20.3149 C 145.0588 21.949 143.404 22.8867 141.354 23.1279 C 139.3045 23.369 137.4614 22.8428 135.8246 21.5494 C 134.1873 20.256 133.2352 18.5727 132.9677 16.5 C 132.7004 14.428 133.1962 12.5749 134.4557 10.9407 C 135.7147 9.306 137.3689 8.3684 139.4184 8.1272 C 141.4685 7.8861 143.3121 8.4122 144.949 9.7062 ZM 145.3247 25.2664 C 147.0734 25.0607 148.6385 25.5042 150.0204 26.5958 C 151.4236 27.7047 152.239 29.1428 152.4672 30.9113 C 152.6954 32.6798 152.2688 34.2545 151.1869 35.6359 C 150.1264 37.0353 148.7219 37.8372 146.9733 38.0429 C 145.224 38.2487 143.6484 37.7974 142.2446 36.688 C 140.8632 35.5963 140.0579 34.1666 139.8297 32.3981 C 139.6015 30.6296 140.018 29.0465 141.0781 27.6478 C 142.1605 26.2663 143.5754 25.4722 145.3247 25.2664 Z" fill="#66cccc"/>	<path d="M 160.3661 12.9007 C 160.1532 12.1346 160.4256 11.6581 161.1842 11.4728 C 164.0765 13.4679 164.3692 15.6625 162.0629 18.0571 C 161.8753 18.2335 161.7457 18.1911 161.6739 17.9293 C 161.3057 16.853 161.0124 15.7588 160.7921 14.6459 C 160.6593 14.0633 160.5177 13.4811 160.3661 12.9007 ZM 180.5522 25.9713 C 180.2178 26.0717 179.8503 25.8113 179.4491 25.1896 C 179.1406 24.7238 179.103 24.2068 179.3351 23.6389 C 179.9269 22.1608 179.6023 20.8289 178.3609 19.6427 C 177.4246 18.7497 177.534 18.0413 178.6888 17.5198 C 178.9891 17.6801 179.2688 17.8497 179.5274 18.029 C 181.8208 19.6004 182.436 21.8537 181.3729 24.7891 C 181.1267 25.4774 180.8531 25.8715 180.5522 25.9713 ZM 146.5013 19.7431 C 143.012 16.8146 142.3484 13.6695 144.5108 10.3074 C 144.5247 10.2673 144.5284 10.2182 144.5211 10.1614 C 147.748 12.3874 148.6012 15.3756 147.0804 19.1248 C 146.9975 19.3664 146.8042 19.5723 146.5013 19.7431 ZM 145.6604 28.0932 C 144.8774 27.2009 145.0299 26.536 146.119 26.0992 C 149.6615 27.8063 150.1697 29.898 147.6448 32.3761 C 147.4573 32.553 147.3089 32.5123 147.1996 32.2548 C 146.7712 31.3015 146.4888 30.3701 146.3523 29.4594 C 146.2698 28.9675 146.0388 28.5118 145.6604 28.0932 ZM 165.3646 36.5453 C 165.4373 36.0731 165.1735 37.7259 165.3646 36.5453 Z" fill="#3cb3b3"/></svg>