<?xml version="1.0" standalone="no"?><!-- Generator: Adobe Fireworks CS6, Export SVG Extension by Aaron Beall (http://fireworks.abeall.com) . Version: 0.6.1  --><!DOCTYPE svg PUBLIC "-//W3C//DTD SVG 1.1//EN" "http://www.w3.org/Graphics/SVG/1.1/DTD/svg11.dtd"><svg id="Untitled-Page%201" viewBox="0 0 80 70" style="background-color:#ffffff00" version="1.1"	xmlns="http://www.w3.org/2000/svg" xmlns:xlink="http://www.w3.org/1999/xlink" xml:space="preserve"	x="0px" y="0px" width="80px" height="70px">	<path d="M 63.632 57.8841 C 63.7792 59.2068 63.3062 59.9942 62.2131 60.246 C 57.6942 61.4218 53.4266 61.2225 49.412 59.6479 C 45.0188 57.9472 41.4452 55.2494 38.6918 51.5543 C 35.9594 47.9223 34.9507 44.2167 35.665 40.4376 C 36.2119 37.7082 37.3783 35.2098 39.1648 32.9423 C 43.2846 33.6142 47.2684 35.1784 51.1148 37.6347 C 54.8147 40.0701 57.725 42.9988 59.8484 46.4212 C 61.7611 49.5913 63.0223 53.4122 63.632 57.8841 Z" fill="#eeeeff"/>	<path d="M 25.9855 59.6479 C 21.9704 61.2225 17.7034 61.4218 13.1838 60.246 C 12.0914 59.9942 11.6184 59.2068 11.765 57.8841 C 12.3747 53.4122 13.6359 49.5913 15.5486 46.4212 C 17.672 42.9988 20.5829 40.0701 24.2822 37.6347 C 28.1292 35.1784 32.113 33.6142 36.2328 32.9423 C 38.0187 35.2098 39.1857 37.7082 39.7319 40.4376 C 40.4469 44.2167 39.4376 47.9223 36.7058 51.5543 C 33.9518 55.2494 30.3788 57.9472 25.9855 59.6479 Z" fill="#eeeeff"/>	<path d="M 14.2874 20.5345 C 18.3026 20.6603 22.2857 21.7103 26.2374 23.6838 C 30.3154 25.8042 33.6679 28.4811 36.2956 31.7143 C 35.2235 34.3806 33.6365 36.6374 31.5341 38.4851 C 28.6126 40.9835 24.9029 41.9597 20.4044 41.4138 C 15.822 40.8679 11.6911 39.1254 8.0134 36.1862 C 4.6498 33.4986 2.3478 29.9087 1.1076 25.4158 C 0.7713 24.3241 1.2233 23.5263 2.4636 23.0222 C 6.6253 21.3009 10.5666 20.4715 14.2874 20.5345 Z" fill="#eeeeff"/>	<path d="M 26.9622 9.7955 C 28.6865 5.8485 31.5766 2.6889 35.633 0.3165 C 36.558 -0.2712 37.4411 -0.0406 38.2823 1.0094 C 41.0141 4.5784 42.8221 8.1686 43.7052 11.7798 C 44.6302 15.6846 44.6511 19.7995 43.768 24.1245 C 42.7803 28.5964 41.0775 32.5225 38.6604 35.9026 C 35.7808 35.5456 33.174 34.6008 30.8407 33.0684 C 27.6667 30.906 25.7645 27.5781 25.1339 23.0853 C 24.4608 18.5085 25.0704 14.0786 26.9622 9.7955 Z" fill="#eeeeff"/>	<path d="M 63.0014 22.4554 C 67.1631 23.6733 70.6739 26.1192 73.5326 29.793 C 74.2475 30.6539 74.1422 31.5672 73.2173 32.5329 C 70.0008 35.6821 66.6803 37.9392 63.2539 39.3037 C 59.4703 40.7313 55.3714 41.2772 50.9571 40.9414 C 46.3957 40.5634 42.2864 39.3877 38.6284 37.4142 C 38.5865 34.5381 39.1857 31.8508 40.426 29.3523 C 42.1497 25.9091 45.2078 23.5786 49.6011 22.361 C 54.0362 21.1013 58.5034 21.1327 63.0014 22.4554 Z" fill="#eeeeff"/>	<path d="M 33.3471 14.4409 C 33.5799 14.376 33.8213 14.3234 34.0725 14.2835 C 34.5319 14.3204 34.9895 14.3674 35.4446 14.4252 C 35.5911 14.4462 35.7069 14.5406 35.7907 14.7085 C 36.9053 16.9551 37.4829 19.3905 37.5248 22.0147 C 37.5458 23.2953 37.6092 24.5971 37.7145 25.9199 C 37.8192 27.2214 37.9245 28.5337 38.0298 29.8564 C 42.6331 27.2949 47.6255 26.7911 53.0066 28.3445 C 55.3603 29.0165 56.853 30.4546 57.4836 32.659 C 57.6099 33.1 57.5255 33.5198 57.2311 33.9187 C 55.9699 35.4724 54.2992 36.4485 52.2183 36.8474 C 49.6959 37.3515 47.3312 37.3306 45.1241 36.7847 C 49.5383 39.2619 52.5441 42.81 54.1416 47.429 C 54.5831 48.7096 54.3515 49.8748 53.4475 50.9245 C 52.3132 52.2472 50.8623 52.6775 49.0967 52.2158 C 47.4149 51.7539 45.8704 50.998 44.4614 49.9483 C 41.96 48.0167 39.9105 45.7074 38.3131 43.0201 C 37.8303 42.2223 37.3783 41.4245 36.9577 40.6265 C 34.7296 44.9096 31.6819 48.4786 27.8139 51.3338 C 26.0902 52.5935 24.409 52.7931 22.7691 51.9323 C 22.4329 51.7435 22.2229 51.4494 22.1385 51.0506 C 21.7598 49.1819 21.9599 47.3659 22.7377 45.6025 C 23.8936 43.0619 25.3759 40.7421 27.1833 38.6425 C 24.0937 38.9996 21.2351 38.2962 18.6068 36.5325 C 17.3665 35.6717 16.1903 34.7481 15.0756 33.7612 C 13.0582 31.9348 12.7639 30.0139 14.1926 27.9982 C 14.5922 27.4524 15.1286 27.127 15.8011 27.0221 C 17.6301 26.7911 19.4585 26.9486 21.2868 27.4945 C 22.9902 27.9982 24.7034 28.5128 26.4265 29.0374 C 27.7296 29.4154 29.0326 29.8352 30.3363 30.2971 C 29.3479 26.8751 28.9489 23.3479 29.1386 19.7159 C 29.2432 17.5954 30.1682 16.0312 31.9128 15.0234 C 32.2842 14.8149 32.6783 14.647 33.0952 14.5197 L 33.3471 14.4409 Z" fill="#fcd2df"/>	<path d="M 45.1869 29.2266 L 41.4981 31.7459 L 40.0472 33.6355 L 38.8181 34.4541 L 47.0473 34.8635 L 39.291 34.8635 L 46.1648 40.3432 L 38.1554 34.8635 L 36.9262 36.0918 L 35.7907 36.0918 L 31.9442 38.6112 L 33.0798 36.9735 L 36.5161 34.8635 L 29.327 34.6116 L 36.5161 33.8873 L 29.0751 25.8882 L 36.5161 32.3441 L 36.9262 21.3849 L 37.8401 33.6355 L 40.0472 22.361 L 40.0472 25.8882 L 38.4079 33.8873 L 41.9082 30.9269 L 45.1869 29.2266 Z" fill="#ff0099"/></svg>