<?xml version="1.0" standalone="no"?><!-- Generator: Adobe Fireworks CS6, Export SVG Extension by Aaron Beall (http://fireworks.abeall.com) . Version: 0.6.1  --><!DOCTYPE svg PUBLIC "-//W3C//DTD SVG 1.1//EN" "http://www.w3.org/Graphics/SVG/1.1/DTD/svg11.dtd"><svg id="Untitled-Page%201" viewBox="0 0 155 125" style="background-color:#ffffff00" version="1.1"	xmlns="http://www.w3.org/2000/svg" xmlns:xlink="http://www.w3.org/1999/xlink" xml:space="preserve"	x="0px" y="0px" width="155px" height="125px">	<path visibility="hidden" d="M -21.9474 95.2678 L -19.8374 96.6806 L -14.538 97.7397 C -18.1546 92.2418 -20.164 86.2054 -20.5662 79.6312 C -13.7515 83.8008 -10.955 89.9797 -12.1771 98.1686 L -3.8644 99.2026 L -3.7638 98.8496 L -3.5877 98.6978 C -5.8987 93.3681 -5.8231 88.1387 -3.3624 83.0103 C 1.46 87.5838 2.3142 92.9227 -0.8004 99.0257 L 6.0057 99.2026 C 3.4273 93.2507 2.8661 87.1219 4.3236 80.8163 L 4.3236 80.8034 C 9.5011 86.8512 11.0997 92.9256 9.1203 99.0257 L 15.4494 98.7486 L 15.5492 98.5467 L 16.504 98.4207 L 16.6045 98.0168 C 13.9256 93.0903 13.4485 87.9626 15.1727 82.6322 L 14.9973 82.2792 C 19.4674 86.8355 20.9327 91.8379 19.3925 97.2857 C 21.3349 96.9155 23.151 96.193 24.8424 95.1168 L 24.8923 94.6628 C 21.4147 89.3904 20.2546 83.6397 21.414 77.4114 C 26.3869 81.6691 28.5845 86.9064 28.0069 93.124 L 34.3103 89.467 L 34.4358 88.786 L 34.1848 88.5089 L 34.2604 88.2569 C 30.0241 83.4141 28.0319 77.7981 28.2829 71.4086 L 27.7809 70.7785 C 33.4732 74.545 36.3282 79.7064 36.3446 86.2641 L 36.5963 86.365 L 36.7967 87.3489 L 42.5981 83.8173 L 42.5482 83.0103 C 39.5676 78.4031 37.6509 73.385 36.7967 67.9536 C 42.6238 71.8039 45.5622 76.4196 45.6122 81.8001 C 48.3246 80.4045 51.2217 79.4629 54.3021 78.9753 C 49.7143 73.3427 47.8811 66.9196 48.8016 59.7068 C 54.3848 63.5993 56.9967 69.6693 56.6381 77.9162 C 60.3545 76.9238 64.1301 76.386 67.9649 76.3015 C 64.9173 71.1401 64.0552 65.6665 65.378 59.8829 C 69.8146 64.2545 71.5145 69.5676 70.4763 75.8225 L 70.8278 76.1254 L 81.2006 75.2675 L 81.2006 75.0154 C 76.503 71.047 73.8283 66.0153 73.1759 59.9209 C 79.1962 63.3809 82.9597 68.404 84.4649 74.9904 L 94.0341 73.6284 C 89.1618 69.8455 86.1812 64.9691 85.0931 59 C 91.8907 61.3372 95.7839 66.0282 96.7715 73.0735 L 102.5479 71.8633 L 103 72.2414 L 102.8239 72.7706 L 96.37 74.4354 C 99.2665 82.0014 98.4293 88.9371 93.8587 95.2428 C 91.246 88.3321 91.3965 81.4722 94.31 74.6624 L 84.5156 75.9743 L 84.1391 76.9324 C 86.4322 84.0951 85.1017 90.476 80.1453 96.0756 C 77.1654 89.5852 77.6175 82.9773 81.5015 76.2514 L 70.8528 76.9825 L 70.6267 77.3613 C 74.5114 83.9856 74.6369 90.6865 71.0039 97.4626 C 66.0161 91.7985 64.9109 85.0725 67.6882 77.2854 C 64.0888 77.319 60.547 77.8153 57.0645 78.7733 L 57.3661 79.2023 L 57.2656 79.4794 C 59.9488 84.7596 60.1541 90.6657 57.8809 97.1976 C 54.5424 91.9145 53.224 86.1345 53.9256 79.8582 C 50.744 80.3623 47.8141 81.5223 45.1351 83.3382 C 48.7974 87.2401 49.9447 92.2504 48.5756 98.3705 C 44.2837 94.9614 42.3335 90.4559 42.7243 84.852 L 36.9479 88.2311 L 36.9978 88.786 C 41.9706 93.2758 43.503 98.74 41.5941 105.1796 C 35.7171 101.9516 33.3227 97 34.4108 90.3249 L 26.5751 95.1927 L 30.2167 99.3788 C 32.2175 103.9616 31.4224 108.5186 27.8308 113.0491 C 24.4153 107.7187 23.586 102.0189 25.3444 95.9488 L 19.1665 98.2696 L 19.1665 98.4715 L 18.7643 98.6727 C 19.0659 105.7181 16.4954 111.4265 11.0541 115.7981 C 9.899 109.6607 11.3301 104.2551 15.3488 99.5807 L 8.1156 99.9588 C 8.5007 108.2988 4.524 113.6456 -3.8137 116 C -3.6298 108.9711 -0.5323 103.6415 5.4787 100.0096 L -2.2821 100.0096 C -2.65 107.66 -6.9284 112.7799 -15.1156 115.3691 C -12.8888 109.1988 -9.2386 104.079 -4.166 100.0096 L -12.1771 99.0766 C -13.1148 108.9124 -18.6402 113.8561 -28.7534 113.9062 L -28.7656 113.8812 C -24.7525 107.317 -19.7426 102.2137 -13.7344 98.5718 L -14.6635 98.5718 L -21.8219 97.3108 C -27.6147 100.1356 -33.3412 100.1106 -39 97.2356 C -35.0319 92.1408 -29.7246 91.283 -23.0776 94.6628 C -22.6925 94.8475 -22.3153 95.0494 -21.9474 95.2678 Z" fill="#999933"/>	<path d="M 132.747 105.2147 C 133.2779 107.0216 132.8107 108.2352 131.3453 108.8557 C 125.3203 111.6083 119.3083 112.3829 113.3117 111.1787 C 106.755 109.8921 101.0983 107.0141 96.3426 102.5441 C 91.6316 98.1568 89.3109 93.242 89.3798 87.8 C 89.4727 83.8619 90.488 80.0928 92.4267 76.4927 C 98.3484 76.4132 104.2994 77.6104 110.2778 80.0847 C 116.0464 82.5661 120.8331 85.9294 124.6415 90.1747 C 128.0937 94.1204 130.7955 99.1336 132.747 105.2147 Z" fill="#eeeeff"/>	<path d="M 80.5788 116.9551 C 75.3558 120.1392 69.4426 121.4691 62.8386 120.9452 C 61.2502 120.8635 60.3958 119.8831 60.2753 118.0038 C 60.0275 111.6221 60.8502 105.9869 62.7432 101.0979 C 64.8685 95.8055 68.2158 91.0068 72.7857 86.701 C 77.557 82.3297 82.7387 79.1678 88.33 77.2156 C 91.3829 79.9349 93.6279 83.1286 95.0623 86.7972 C 96.9906 91.8868 96.4915 97.2992 93.5676 103.0338 C 90.6282 108.8618 86.2992 113.502 80.5788 116.9551 Z" fill="#eeeeff"/>	<path d="M 54.6154 65.3374 C 60.2566 64.5226 66.0802 65.0035 72.0871 66.779 C 78.3065 68.7283 83.6491 71.6316 88.1158 75.489 C 87.2734 79.4688 85.6109 83.0047 83.1276 86.0978 C 79.66 90.2996 74.7166 92.5745 68.2967 92.9231 C 61.7597 93.2923 55.5592 91.8828 49.6978 88.6941 C 44.3371 85.7784 40.2379 81.3437 37.4001 75.389 C 36.6618 73.9506 37.0972 72.7275 38.7063 71.7193 C 44.098 68.2945 49.401 66.167 54.6154 65.3374 Z" fill="#eeeeff"/>	<path d="M 69.6848 47.2478 C 71.1235 41.3228 74.3847 36.2074 79.4692 31.9014 C 80.6171 30.8544 81.9077 30.958 83.3413 32.2136 C 88.0359 36.5133 91.4451 41.0702 93.567 45.8844 C 95.8196 51.0975 96.8607 56.8262 96.6903 63.0705 C 96.4098 69.5455 94.996 75.4361 92.4499 80.7422 C 88.3386 80.9547 84.4639 80.2809 80.8268 78.7209 C 75.8602 76.4904 72.3839 72.3222 70.398 66.2172 C 68.3321 60.0056 68.0946 53.6826 69.6848 47.2478 Z" fill="#eeeeff"/>	<path d="M 123.1539 56.0023 C 129.2684 56.6732 134.7753 59.2157 139.673 63.6302 C 140.8837 64.6534 140.9612 65.9521 139.9062 67.5258 C 136.1864 72.7071 132.1018 76.6709 127.6497 79.4172 C 122.7141 82.3395 117.1211 84.1108 110.8707 84.7313 C 104.4043 85.3293 98.3733 84.7043 92.7769 82.8563 C 92.0111 78.8589 92.1875 74.9666 93.3061 71.1793 C 94.8679 65.9564 98.5678 61.9548 104.407 59.175 C 110.2943 56.3261 116.5438 55.2683 123.1539 56.0023 Z" fill="#eeeeff"/>	<path d="M 79.7484 52.1466 C 80.0576 51.9988 80.382 51.866 80.7233 51.7483 C 81.3742 51.6865 82.0251 51.6392 82.6752 51.6076 C 82.8852 51.6006 83.0702 51.7036 83.2285 51.9169 C 85.3383 54.7726 86.7443 58.0237 87.4482 61.6701 C 87.7923 63.4494 88.201 65.2478 88.6735 67.065 C 89.1398 68.8527 89.6096 70.6554 90.082 72.4725 C 95.8841 67.7682 102.736 65.8352 110.6367 66.6729 C 114.0907 67.0289 116.53 68.6647 117.9532 71.581 C 118.2381 72.1644 118.2234 72.7702 117.9102 73.3986 C 116.53 75.8745 114.4356 77.6467 111.6262 78.7156 C 108.2257 80.0399 104.9164 80.5939 101.6982 80.3774 C 108.4752 82.7409 113.5476 86.9438 116.9154 92.9861 C 117.8473 94.6617 117.8103 96.3425 116.8053 98.0281 C 115.5455 100.1509 113.6241 101.1082 111.0436 100.9003 C 108.5801 100.6713 106.2362 99.9988 104.0093 98.8836 C 100.0391 96.8088 96.6076 94.0962 93.7148 90.7455 C 92.844 89.7529 92.0163 88.7527 91.2323 87.7444 C 89.1724 94.262 85.7916 99.9867 81.0891 104.9191 C 78.9904 107.0994 76.6904 107.792 74.1873 106.9969 C 73.6711 106.8167 73.3054 106.4588 73.0894 105.9238 C 72.1007 103.4134 71.9338 100.8335 72.587 98.1845 C 73.5773 94.3593 75.078 90.7613 77.0872 87.39 C 72.858 88.6493 68.6908 88.3741 64.5846 86.5645 C 62.64 85.6709 60.7694 84.674 58.9693 83.5736 C 55.7013 81.526 54.8176 78.9219 56.3183 75.761 C 56.7425 74.9018 57.4119 74.3161 58.3257 74.0042 C 60.8245 73.2314 63.418 72.9999 66.1069 73.3098 C 68.6108 73.5917 71.1312 73.8862 73.6678 74.1924 C 75.5814 74.3978 77.5054 74.6615 79.4406 74.9837 C 77.2181 70.459 75.7932 65.6425 75.1651 60.5346 C 74.7899 57.554 75.6977 55.1464 77.8876 53.3119 C 78.3551 52.9298 78.8646 52.5986 79.4158 52.3184 L 79.7484 52.1466 Z" fill="#fcd2df"/>	<path d="M 99.9274 69.8301 L 95.3928 74.2503 L 93.8302 77.241 L 92.314 78.6849 L 103.913 77.2261 L 93.0755 79.1386 L 104.0275 85.0794 L 91.4888 79.4186 L 90.0733 81.4333 L 88.4867 81.7133 L 83.7317 86.1723 L 84.9157 83.6104 L 89.1982 79.8228 L 79.0912 81.2445 L 88.9582 78.4627 L 76.5942 69.1511 L 88.5787 76.3122 L 86.4569 60.9401 L 90.7463 77.7852 L 91.0578 61.5307 L 91.9251 66.4456 L 91.6015 77.9962 L 95.7645 73.008 L 99.9274 69.8301 Z" fill="#ff0099"/>	<path d="M 135.1071 30.7953 C 131.8405 28.6097 138.3637 32.9742 135.1071 30.7953 ZM 116.976 27.2512 C 120.0008 26.6228 122.8042 27.1738 125.3913 28.8992 C 127.9728 30.6208 129.5886 33.011 130.243 36.0745 C 130.898 39.141 130.4006 41.9954 128.7461 44.6423 C 127.0859 47.2985 124.746 48.9691 121.7212 49.6488 C 118.6826 50.3323 115.8447 49.8152 113.2128 48.0934 C 110.5751 46.3679 108.9261 43.9435 108.2715 40.825 C 107.6164 37.7097 108.1473 34.8215 109.8581 32.1654 C 111.5629 29.5187 113.9372 27.882 116.976 27.2512 ZM 134.8627 42.0629 C 136.2578 39.8193 138.2017 38.4273 140.6898 37.8813 C 143.2074 37.3295 145.5429 37.7775 147.7018 39.2219 C 149.8562 40.6634 151.2012 42.6736 151.7406 45.2575 C 152.3193 47.8359 151.93 50.2441 150.57 52.4875 C 149.2052 54.7388 147.2668 56.16 144.7483 56.7487 C 142.2609 57.3302 139.9206 56.9031 137.731 55.4617 C 135.5369 54.0174 134.1495 51.9864 133.5702 49.3729 C 133.0315 46.7518 133.4627 44.3143 134.8627 42.0629 Z" fill="#66cccc"/>	<path d="M 129.7732 35.3018 C 123.1863 36.5122 118.9925 34.1983 117.24 28.3553 C 117.2077 28.2996 117.1556 28.2468 117.0841 28.1993 C 122.6703 26.6397 126.8388 28.5851 129.6218 34.0228 C 129.8152 34.3555 129.8653 34.7819 129.7732 35.3018 ZM 138.3311 44.4167 C 136.6093 44.4676 136.008 43.6429 136.5314 41.9436 C 141.7029 39.4717 144.4866 40.9062 144.9185 46.242 C 144.9428 46.632 144.7616 46.7661 144.3762 46.6452 C 142.9254 46.2247 141.631 45.6538 140.4923 44.9315 C 139.8688 44.5514 139.1478 44.3799 138.3311 44.4167 Z" fill="#3cb3b3"/>	<path d="M 31.1118 107.2305 C 36.4012 110.9619 40.259 115.834 42.6856 121.8444 C 40.0795 122.2435 37.5846 121.8748 35.2007 120.7404 C 30.8053 118.7507 28.3882 115.3708 27.9495 110.6002 C 27.0427 113.3697 25.3836 115.7071 22.9711 117.6131 C 19.9218 119.9841 16.4134 121.1287 12.4477 121.0468 C 12.7134 120.302 13.0039 119.5711 13.3194 118.8554 C 15.3584 113.6781 18.7819 109.6276 23.5918 106.7046 C 22.3459 106.4882 21.1147 106.2471 19.8982 105.9813 C 16.2767 105.1342 13.0838 103.4345 10.318 100.8852 L 10 99.7057 C 14.594 99.9151 19.059 100.7481 23.3957 102.2061 C 22.8357 101.3864 22.3542 100.5457 21.9525 99.6835 C 18.6312 93.6579 19.4211 88.0967 24.3223 83 C 24.8115 83.7125 25.2859 84.4498 25.7464 85.2118 C 26.9757 87.4128 28.0427 89.7197 28.9483 92.1332 L 28.9566 92.6364 C 29.2139 93.7473 29.4521 94.864 29.6692 95.9858 C 29.9061 97.65 29.8289 99.2508 29.4374 100.7875 C 35.4542 96.9946 41.9749 94.5214 49 93.3673 C 48.2624 96.7655 46.7107 99.5807 44.3434 101.8115 C 40.7175 105.3468 36.3067 107.1531 31.1118 107.2305 Z" fill="#dcbfa4"/>	<path d="M 31.6457 103.5487 C 31.0358 108.0509 28.8212 108.9563 24.9999 106.2661 C 24.1154 105.659 23.9232 104.8678 24.4232 103.8913 C 26.4207 99.8212 28.8282 99.7063 31.6457 103.5487 Z" fill="#be8b5a"/></svg>